<?xml version="1.0" standalone="no"?>
<!DOCTYPE svg PUBLIC "-//W3C//DTD SVG 20010904//EN"
 "http://www.w3.org/TR/2001/REC-SVG-20010904/DTD/svg10.dtd">
<svg version="1.0" xmlns="http://www.w3.org/2000/svg"
 width="800.000000pt" height="800.000000pt" viewBox="0 0 800.000000 800.000000"
 preserveAspectRatio="xMidYMid meet">
<metadata>
Created by potrace 1.16, written by Peter Selinger 2001-2019
</metadata>
<g transform="translate(0.000000,800.000000) scale(0.100000,-0.100000)"
fill="#000000" stroke="none">
<path d="M7973 7222 c-32 -5 -37 -31 -8 -44 30 -13 38 -8 33 24 -2 17 -8 22
-25 20z"/>
<path d="M7970 6380 c0 -11 -4 -20 -9 -20 -5 0 -16 -3 -25 -6 -10 -4 -16 -1
-16 10 0 10 -6 13 -15 10 -8 -4 -15 -10 -15 -15 0 -5 7 -9 15 -9 8 0 15 -7 15
-15 0 -11 11 -15 40 -15 l40 0 0 40 c0 29 -4 40 -15 40 -8 0 -15 -9 -15 -20z"/>
<path d="M5137 6352 c-20 -22 -22 -72 -4 -91 10 -11 10 -14 0 -18 -15 -6 -18
-83 -3 -83 6 0 10 -18 10 -40 0 -22 5 -40 10 -40 19 0 10 -32 -10 -37 -11 -3
-20 -14 -20 -24 0 -12 -7 -19 -20 -19 -11 0 -20 -4 -20 -10 0 -5 -9 -10 -20
-10 -11 0 -20 -4 -20 -9 0 -5 -11 -12 -25 -15 -16 -4 -25 -13 -25 -26 0 -23 2
-22 -62 -25 -27 -1 -48 2 -48 6 0 11 -43 7 -59 -5 -10 -8 -15 -8 -18 2 -5 14
-33 16 -33 2 0 -5 -4 -10 -10 -10 -5 0 -10 23 -10 50 0 38 -4 50 -15 50 -11 0
-15 11 -15 40 0 22 -4 40 -10 40 -5 0 -10 7 -10 15 0 8 5 15 10 15 6 0 10 -7
10 -15 0 -9 9 -15 25 -15 23 0 25 4 25 40 0 36 -2 40 -25 40 -14 0 -25 5 -25
10 0 6 -18 10 -40 10 -30 0 -40 -4 -40 -16 0 -12 -6 -15 -22 -11 -18 4 -30 -4
-54 -36 -17 -23 -36 -41 -42 -40 -5 1 -13 -9 -16 -22 -4 -14 -11 -25 -16 -25
-6 0 -10 -7 -10 -15 0 -8 5 -15 10 -15 23 0 8 -28 -19 -33 -20 -4 -31 -14 -35
-31 -3 -14 -19 -32 -34 -40 -16 -8 -34 -22 -42 -31 -11 -14 -10 -18 11 -33 13
-9 28 -16 33 -14 14 5 34 -17 41 -45 3 -15 19 -40 36 -57 33 -34 31 -39 -11
-38 -18 0 -39 10 -54 26 -18 21 -33 26 -69 26 -45 0 -46 -1 -57 -40 -6 -21 -8
-52 -4 -67 4 -22 3 -25 -5 -13 -9 13 -11 12 -11 -3 0 -14 -5 -17 -21 -12 -16
5 -19 4 -14 -6 6 -9 4 -11 -7 -6 -18 6 -98 -57 -98 -77 0 -13 -29 -30 -105
-60 -55 -23 -152 -24 -192 -3 -18 9 -39 17 -47 17 -8 0 -38 14 -66 30 -29 17
-65 30 -84 30 -20 0 -36 6 -39 14 -3 8 -40 22 -81 32 -42 10 -76 21 -76 26 0
13 -70 9 -85 -5 -7 -8 -24 -13 -37 -11 -12 1 -26 3 -30 3 -5 1 -8 10 -8 21 0
25 -18 26 -27 3 -8 -23 -34 -53 -45 -53 -4 0 -8 11 -8 25 0 16 -6 25 -15 25
-11 0 -15 -11 -15 -40 0 -37 2 -40 28 -40 17 0 32 -8 40 -20 7 -12 24 -25 37
-30 15 -6 25 -17 25 -29 0 -13 12 -27 30 -36 23 -12 30 -22 30 -46 0 -25 6
-32 38 -46 47 -19 50 -22 32 -33 -11 -7 -12 -14 -2 -34 6 -15 17 -25 24 -24 7
2 15 -17 21 -49 5 -29 13 -53 18 -53 15 0 10 -27 -8 -45 -10 -11 -26 -15 -42
-12 -29 6 -65 -9 -56 -23 9 -15 -26 -27 -95 -35 -36 -4 -68 -9 -71 -10 -3 -2
-24 3 -47 10 -23 8 -48 12 -57 9 -8 -3 -23 -3 -32 2 -10 4 -20 8 -23 9 -35 12
-60 27 -60 35 0 6 -13 24 -30 40 -16 15 -37 46 -47 66 -10 21 -29 44 -43 51
-30 15 -57 33 -76 51 -7 6 -17 12 -23 12 -16 0 -13 -73 4 -96 8 -10 15 -29 15
-41 0 -21 15 -29 43 -24 5 1 6 -3 2 -9 -11 -17 5 -50 21 -43 8 3 14 -1 14 -11
0 -9 -8 -16 -19 -16 -14 0 -17 -6 -13 -25 2 -14 8 -23 12 -20 10 6 20 -19 20
-48 0 -12 9 -28 20 -35 11 -7 20 -23 20 -35 0 -15 14 -35 38 -54 25 -20 43
-46 52 -74 8 -24 19 -48 25 -52 6 -6 3 -7 -7 -4 -9 3 -19 -1 -22 -9 -7 -19 12
-57 25 -49 5 4 9 2 9 -4 0 -5 -14 -8 -30 -6 -17 2 -36 -2 -44 -11 -8 -8 -32
-14 -54 -14 -43 0 -107 22 -95 33 3 4 1 7 -5 7 -7 0 -12 -4 -12 -9 0 -5 -9
-11 -20 -14 -11 -3 -20 -1 -20 4 0 4 -6 6 -14 3 -8 -3 -17 -1 -21 5 -3 6 1 11
10 11 9 0 13 5 9 11 -3 6 -18 9 -33 6 -15 -3 -33 -2 -40 3 -8 4 -27 4 -43 0
-20 -6 -26 -5 -22 2 5 7 2 9 -8 6 -8 -4 -35 7 -59 23 -48 32 -106 39 -115 14
-4 -8 -19 -15 -34 -15 -28 0 -47 -26 -42 -56 1 -6 -5 -17 -13 -24 -8 -7 -15
-21 -15 -31 0 -12 -7 -19 -18 -19 -18 0 -62 -49 -62 -70 0 -5 -9 -10 -19 -10
-16 0 -31 -27 -35 -63 -1 -4 -8 -12 -16 -17 -10 -7 -12 -12 -4 -17 24 -17 41
-68 34 -105 -4 -21 -3 -38 2 -38 4 0 8 -11 8 -25 0 -16 6 -25 15 -25 25 0 17
-24 -12 -37 -15 -7 -49 -13 -76 -13 -58 0 -76 16 -103 91 -10 27 -22 49 -27
49 -4 0 -5 5 -2 10 3 6 0 10 -8 10 -15 0 -66 50 -51 50 5 0 1 5 -8 11 -10 5
-18 17 -18 24 0 8 -9 15 -20 15 -20 0 -25 15 -21 67 1 11 -2 24 -8 27 -6 4 -8
13 -4 21 3 8 0 15 -6 15 -6 0 -8 6 -5 14 4 10 -2 16 -18 18 -18 2 -23 9 -22
30 0 15 -4 24 -10 21 -5 -4 -7 1 -2 12 5 15 4 16 -9 5 -12 -10 -16 -8 -25 11
-9 19 -18 24 -48 23 -20 -1 -39 1 -42 5 -7 9 -100 43 -132 48 -15 3 -25 9 -22
14 3 5 -34 8 -83 7 -73 -1 -80 -2 -43 -8 l45 -7 -44 -1 c-50 -2 -120 -31 -121
-49 0 -18 -14 -16 -40 7 -13 11 -30 20 -39 20 -20 1 -61 30 -41 30 9 0 8 6 -5
20 -10 11 -13 20 -7 20 6 0 9 7 6 15 -7 18 -31 20 -37 3 -4 -10 -7 -10 -18 0
-11 10 -10 12 4 12 29 0 19 18 -17 31 -19 7 -32 17 -29 22 3 5 -3 6 -14 3 -27
-9 -60 3 -41 15 9 6 4 9 -14 9 -23 0 -28 4 -28 25 0 16 -6 25 -15 25 -8 0 -14
6 -12 13 1 7 -10 13 -25 15 -19 2 -28 -1 -28 -11 0 -10 -16 -16 -53 -20 -66
-6 -107 1 -107 20 0 8 -6 13 -12 10 -7 -2 -12 -9 -11 -16 2 -6 -8 -13 -22 -17
-14 -3 -22 -10 -19 -15 3 -5 -17 -9 -44 -9 -35 0 -57 6 -77 22 -25 19 -27 26
-21 66 4 29 13 50 26 59 14 10 20 25 20 52 0 36 3 40 40 55 22 9 56 16 76 16
20 0 48 6 62 14 15 8 35 17 45 20 10 3 16 10 12 15 -3 5 -1 12 5 16 6 4 8 10
5 15 -3 4 2 13 10 20 29 24 17 143 -24 235 -31 69 -50 210 -29 217 7 3 8 16 3
38 -6 27 -9 30 -17 17 -11 -21 -28 -22 -28 -2 0 8 -3 15 -7 15 -13 -1 -53 -38
-53 -49 0 -5 -11 -22 -24 -36 -13 -14 -30 -35 -38 -46 -7 -11 -24 -21 -37 -24
-29 -5 -51 -23 -51 -41 0 -7 -16 -25 -36 -40 -25 -19 -31 -29 -22 -35 9 -6 7
-13 -9 -27 -24 -20 -117 -29 -142 -13 -8 5 -16 32 -19 65 -2 31 -8 56 -12 56
-4 0 -9 51 -12 113 -3 95 -7 116 -24 133 -10 11 -39 50 -64 87 l-45 68 -60 -3
-60 -3 -3 -480 c-2 -460 0 -531 16 -521 12 7 7 -47 -6 -71 -9 -16 -12 -189
-12 -712 0 -654 1 -691 18 -691 9 0 25 -12 34 -27 15 -25 15 -30 -2 -64 -11
-20 -26 -39 -35 -42 -13 -6 -15 -183 -15 -1697 l0 -1690 4000 0 4000 0 0 627
0 626 -20 -18 c-17 -16 -26 -17 -53 -8 -18 6 -68 9 -112 7 -95 -4 -108 -1
-130 32 -25 38 -5 79 51 104 37 17 50 19 90 10 71 -16 84 -8 84 53 1 29 7 79
15 112 l13 60 -5 -111 c-6 -111 -6 -111 18 -117 13 -4 30 -7 37 -7 9 0 12 86
12 395 l0 395 -39 0 c-40 0 -56 -11 -63 -45 -8 -47 -68 -20 -68 31 0 13 -7 29
-15 38 -18 18 -19 28 -4 43 9 9 16 9 30 0 13 -8 24 -8 44 1 14 7 46 12 70 12
l45 0 0 186 c0 181 -1 186 -20 181 -11 -3 -20 -1 -20 4 0 5 9 9 20 9 18 0 20
7 20 75 0 69 -2 75 -20 75 -11 0 -36 7 -56 15 -34 14 -35 16 -28 52 8 45 17
53 67 53 l37 0 0 1651 0 1652 -52 -5 c-29 -3 -54 -11 -56 -17 -2 -6 -16 -11
-30 -11 -15 0 -43 -5 -62 -10 -23 -7 -36 -7 -38 0 -6 17 -23 11 -43 -15 -11
-13 -35 -27 -54 -31 -22 -4 -37 -13 -40 -25 -5 -14 -12 -18 -27 -13 -13 4 -28
-2 -44 -17 -19 -18 -27 -20 -33 -11 -5 8 -29 13 -59 14 -32 0 -57 6 -69 16
-10 10 -28 16 -40 14 -13 -2 -23 2 -23 8 0 6 -4 8 -10 5 -5 -3 -10 -1 -10 5 0
6 -5 8 -10 5 -6 -4 -21 0 -33 8 -15 10 -65 16 -157 20 -74 3 -146 9 -159 13
-23 7 -24 8 -5 15 13 5 7 8 -23 8 -24 1 -43 6 -43 12 0 6 -23 10 -57 9 -105
-3 -312 9 -353 20 -23 6 -54 9 -68 6 -16 -4 -39 0 -56 9 -15 8 -43 15 -61 15
-17 0 -47 8 -66 17 -25 13 -66 18 -158 20 -68 2 -168 13 -223 23 -55 11 -126
20 -159 20 -40 0 -69 6 -86 17 -20 13 -54 19 -130 21 -57 3 -103 0 -103 -4 0
-11 -90 -11 -108 0 -7 4 -32 10 -55 12 -33 4 -47 1 -60 -14z m-56 -892 c31 0
39 -4 39 -18 0 -9 9 -23 20 -30 19 -12 28 -33 13 -31 -19 3 -33 -2 -33 -11 0
-5 7 -10 16 -10 13 0 14 -3 4 -15 -7 -8 -15 -13 -19 -11 -4 3 -13 1 -21 -4
-14 -9 -60 7 -60 22 0 4 -7 8 -15 8 -11 0 -15 12 -15 50 0 40 -3 50 -17 50
-22 0 -5 17 22 22 11 2 21 -2 23 -9 2 -8 19 -13 43 -13z m-4346 -250 c3 -5 1
-10 -4 -10 -6 0 -11 5 -11 10 0 6 2 10 4 10 3 0 8 -4 11 -10z m-500 -730 c3
-5 15 -10 25 -10 11 0 25 -10 31 -22 7 -13 17 -26 23 -30 8 -6 8 -10 -1 -16
-6 -4 -15 -21 -19 -37 -4 -17 -16 -39 -27 -49 -22 -21 -77 -32 -77 -16 0 6 -8
11 -17 11 -17 1 -17 2 0 6 19 5 19 8 11 40 -4 13 -10 20 -15 17 -5 -3 -9 2 -9
10 0 9 7 16 16 16 11 0 14 5 9 18 -4 9 -8 29 -10 45 -4 24 -1 27 25 27 16 0
32 -4 35 -10z m4863 -59 c22 -20 31 -38 11 -25 -7 4 -9 -2 -7 -17 3 -22 -39
-79 -59 -79 -5 0 -21 -12 -35 -27 -26 -28 -26 -29 -21 -150 l6 -121 29 -6 c17
-3 34 -3 39 0 5 3 6 -2 3 -10 -3 -9 -1 -16 5 -16 6 0 11 5 11 10 0 20 31 23
44 5 12 -17 14 -17 37 -1 l24 17 -30 -6 c-23 -4 -25 -3 -10 4 11 5 29 18 39
30 13 14 31 21 57 21 33 0 40 -4 45 -25 5 -19 13 -25 33 -25 15 0 36 -7 47
-15 22 -17 34 -19 34 -5 0 5 -11 12 -25 16 -14 3 -25 13 -25 21 0 13 4 12 28
-3 15 -10 38 -18 52 -19 14 -1 48 -12 75 -24 39 -19 67 -24 130 -23 l80 0 7
60 c8 77 25 94 115 116 76 18 123 11 123 -19 0 -9 6 -18 13 -21 8 -3 12 -22
11 -55 -2 -38 1 -48 9 -40 15 15 88 15 84 -1 -3 -14 49 -42 82 -42 22 -1 24
-5 26 -60 1 -56 -1 -61 -35 -95 -20 -20 -34 -43 -32 -53 4 -21 -33 -47 -81
-55 l-39 -6 33 -21 33 -21 -37 -6 c-41 -6 -75 -29 -44 -29 14 0 17 -10 17 -64
0 -61 -2 -66 -29 -82 l-30 -18 25 -29 c17 -20 22 -36 18 -53 -4 -14 -2 -24 5
-24 6 0 11 -9 11 -20 0 -11 7 -20 15 -20 8 0 15 7 15 15 0 8 11 17 25 21 14 3
25 12 25 20 0 8 7 14 15 14 8 0 15 -9 15 -20 0 -11 5 -20 10 -20 6 0 10 -9 10
-20 0 -14 -7 -20 -24 -20 -13 0 -26 -7 -30 -15 -3 -8 0 -14 6 -12 5 1 17 -16
26 -39 14 -37 13 -43 -3 -67 -9 -15 -24 -27 -31 -27 -8 0 -14 -4 -14 -9 0 -5
-12 -11 -27 -13 -18 -2 -29 -10 -31 -22 -2 -10 -15 -30 -28 -42 -18 -19 -34
-24 -77 -24 -53 0 -54 0 -85 -49 -40 -61 -41 -90 -2 -124 24 -22 31 -24 43
-13 23 23 75 46 106 46 31 0 37 18 13 42 -17 17 -15 63 3 78 21 18 60 5 73
-25 11 -23 17 -25 79 -25 109 0 141 18 84 46 -54 27 -67 98 -30 163 20 36 20
37 1 81 -21 49 -14 107 13 115 8 3 21 7 29 9 12 4 13 12 4 42 -5 21 -6 39 -1
43 5 3 14 22 19 41 8 30 15 35 42 38 20 2 32 9 32 18 0 9 7 22 16 31 10 10 14
27 11 49 -4 28 -1 34 13 34 15 0 16 6 9 43 -4 23 -11 50 -15 60 -4 12 0 23 12
32 18 13 16 14 -16 16 -19 1 -42 2 -51 3 -26 2 -59 37 -59 63 0 14 -6 23 -15
23 -8 0 -15 7 -15 15 0 9 9 15 25 15 26 0 28 5 27 53 -1 25 11 33 35 25 10 -4
11 -38 1 -44 -15 -10 13 -34 40 -34 13 0 30 8 37 17 11 15 14 15 39 -4 15 -12
22 -24 17 -28 -6 -3 -8 -12 -5 -19 3 -7 -2 -16 -10 -19 -9 -4 -16 -12 -16 -19
0 -9 2 -10 8 -2 5 9 10 8 19 -2 10 -10 9 -16 -8 -27 -18 -13 -14 -14 44 -10
80 7 106 1 146 -34 23 -20 31 -36 31 -60 0 -38 -38 -102 -62 -103 -25 0 -48
-28 -48 -57 0 -15 -10 -33 -24 -44 -18 -14 -26 -31 -28 -62 -3 -35 -8 -44 -33
-56 -45 -21 -47 -32 -9 -73 29 -33 34 -45 34 -87 l0 -50 48 -7 c56 -8 97 -27
106 -49 12 -32 6 -64 -18 -92 -22 -26 -30 -28 -93 -28 -78 -1 -89 -14 -53 -62
19 -27 20 -31 6 -63 -8 -19 -23 -40 -34 -47 -16 -10 -19 -20 -15 -56 5 -38 2
-46 -21 -64 -15 -12 -29 -35 -32 -54 -3 -19 -18 -44 -32 -56 -24 -20 -24 -23
-13 -65 7 -23 12 -50 12 -58 0 -8 7 -53 15 -100 26 -145 25 -139 9 -105 -8 17
-14 42 -15 57 0 52 -22 133 -52 198 -17 36 -32 66 -33 68 -2 2 -15 -9 -31 -23
-22 -21 -28 -35 -30 -73 -2 -67 -11 -89 -40 -96 -27 -7 -54 7 -54 29 0 7 -7
19 -16 26 -14 11 -18 10 -30 -6 -34 -47 -54 -64 -68 -59 -12 5 -12 -4 2 -55
17 -64 37 -84 48 -48 7 22 52 67 67 67 19 0 18 -32 -2 -46 -26 -19 -27 -51 -1
-84 11 -14 20 -33 20 -43 0 -10 11 -29 25 -43 14 -14 25 -28 25 -33 0 -15 -13
-20 -31 -11 -14 8 -19 5 -24 -20 -4 -17 -4 -48 0 -69 5 -30 3 -41 -10 -48 -16
-9 -16 -37 -1 -61 17 -27 -2 -21 -33 10 -27 28 -31 29 -31 12 0 -11 -5 -25
-12 -32 -8 -8 -8 -15 1 -26 22 -26 112 -66 145 -65 9 1 26 -20 26 -33 0 -3 -8
-8 -17 -11 -24 -5 -73 20 -73 38 0 11 -5 12 -25 5 -20 -7 -25 -6 -25 5 0 18
-20 20 -20 3 -1 -7 -10 -2 -20 11 -18 21 -25 20 -21 -2 1 -5 -3 -6 -9 -2 -5 3
-10 15 -10 26 0 10 -1 19 -3 19 -1 0 -26 9 -55 19 -30 11 -59 18 -66 15 -7 -3
-13 2 -13 11 0 20 16 19 68 -5 57 -25 67 -25 62 3 -3 14 3 29 16 41 12 11 21
23 21 27 0 13 -173 330 -177 325 -2 -2 8 -28 23 -58 39 -76 46 -112 24 -126
-10 -6 -26 -9 -36 -7 -11 2 -25 4 -33 4 -9 1 -11 9 -7 26 5 18 1 27 -14 35
-11 6 -24 8 -29 5 -16 -9 -41 6 -55 34 -19 35 -55 38 -79 5 -14 -19 -16 -28
-8 -38 15 -18 3 -46 -19 -46 -22 0 -37 18 -42 49 -4 32 -24 38 -33 10 -5 -15
-2 -25 9 -31 21 -12 21 -28 0 -28 -10 0 -14 -6 -10 -15 9 -25 -5 -45 -30 -45
-14 0 -27 7 -31 16 -3 8 -23 22 -43 30 -27 11 -40 24 -45 42 -5 20 -8 23 -15
12 -14 -23 -112 30 -127 69 -10 28 -9 31 8 31 13 0 19 7 19 24 0 14 5 28 11
32 7 4 8 9 0 17 -7 7 -15 6 -26 -3 -12 -10 -19 -10 -27 -2 -15 15 -38 15 -38
0 0 -6 -10 -22 -21 -35 l-22 -22 32 -18 c33 -19 44 -41 12 -23 -11 5 -28 10
-38 10 -16 -1 -15 -3 6 -20 13 -11 29 -20 35 -20 9 0 10 -19 4 -77 -12 -122
-13 -123 -28 -76 -7 23 -17 40 -21 37 -5 -3 -9 -36 -9 -74 0 -38 -4 -71 -9
-75 -12 -7 -25 31 -16 45 13 20 -10 9 -31 -16 -12 -14 -35 -27 -51 -29 -15 -2
-29 -4 -30 -4 -1 -1 3 -15 9 -32 11 -32 11 -32 27 -10 15 20 16 19 19 -32 2
-28 8 -56 13 -62 7 -7 9 8 4 47 -7 55 -7 57 15 51 17 -5 21 -3 15 6 -5 10 -2
11 13 7 14 -5 24 -1 31 11 6 10 11 13 11 7 0 -15 40 -55 49 -49 5 2 12 21 16
42 5 27 9 33 15 22 8 -12 13 -12 30 -1 23 14 40 8 40 -13 0 -7 27 -40 60 -74
56 -58 73 -92 51 -106 -12 -7 -50 33 -57 60 -3 11 -23 29 -45 40 -23 10 -48
28 -56 40 -14 18 -15 16 -9 -35 l6 -55 -19 25 c-17 21 -22 23 -45 12 -16 -7
-26 -20 -27 -34 -3 -54 -5 -61 -22 -72 -22 -14 -36 4 -29 40 3 17 0 24 -12 24
-9 0 -16 -6 -16 -13 0 -20 -27 -53 -36 -44 -4 4 -7 29 -6 55 1 26 -2 54 -8 62
-8 13 -10 12 -10 -2 0 -20 -15 -24 -25 -7 -5 6 -11 4 -19 -7 -11 -14 -14 -15
-18 -2 -4 8 -3 21 2 28 9 15 1 50 -11 50 -12 0 -12 -73 0 -86 5 -5 11 -22 13
-39 1 -16 6 -32 9 -35 3 -3 9 -18 13 -33 9 -39 -16 -31 -28 9 -18 58 -40 104
-49 104 -5 0 -4 -6 2 -14 6 -7 13 -33 16 -58 6 -45 6 -45 -25 -43 -38 2 -42 6
-45 46 -2 23 -9 35 -24 40 -11 5 -21 14 -21 21 0 7 -5 5 -11 -5 -6 -10 -8 -25
-5 -33 4 -10 1 -14 -6 -11 -18 6 -17 60 1 73 20 15 23 165 4 171 -7 3 -13 -3
-13 -11 0 -9 -9 -24 -20 -33 -11 -10 -20 -23 -20 -30 0 -13 -36 -10 -70 7 -24
12 -40 0 -40 -29 0 -54 -13 -120 -22 -115 -5 3 -7 12 -4 20 3 8 1 14 -4 14 -5
0 -12 25 -15 55 -4 30 -9 55 -12 55 -19 0 -33 -36 -33 -87 0 -37 -6 -67 -15
-79 -11 -15 -15 -16 -16 -4 -1 8 0 20 1 25 6 24 -1 89 -10 100 -8 9 -5 14 8
17 13 4 21 18 26 47 6 37 14 46 39 42 4 0 7 8 7 19 0 24 -9 26 -24 4 -10 -13
-17 -8 -44 36 -18 28 -32 58 -32 66 0 8 -7 14 -15 14 -20 0 -19 -29 1 -80 13
-31 14 -44 5 -53 -6 -6 -11 -20 -11 -31 0 -19 0 -19 -21 0 -29 26 -39 56 -26
73 9 10 7 16 -6 26 -9 7 -17 20 -17 29 0 9 -8 16 -20 16 -11 0 -20 5 -20 10 0
6 -9 10 -19 10 -11 0 -22 8 -24 18 -3 10 -5 7 -4 -8 2 -44 -24 -140 -38 -140
-7 0 -15 6 -18 13 -7 21 -18 1 -25 -49 -8 -54 -28 -69 -38 -27 -8 35 -32 63
-54 63 -9 0 -28 17 -41 38 -15 22 -32 37 -44 37 -11 0 -23 4 -27 10 -9 12 -14
6 -22 -28 -6 -25 -4 -27 18 -23 28 5 83 -35 72 -52 -3 -6 -2 -13 4 -17 21 -13
9 -41 -25 -59 -35 -19 -35 -19 -13 -31 15 -7 25 -8 30 -1 4 6 11 6 20 -1 7 -7
31 -13 53 -15 36 -3 40 -6 48 -40 5 -21 12 -38 15 -38 4 0 7 -45 7 -101 1 -75
4 -102 15 -109 11 -7 9 -11 -11 -20 -35 -16 -77 2 -85 37 -8 30 12 141 28 161
16 19 -12 15 -66 -9 l-46 -20 -27 21 c-23 18 -28 19 -43 5 -22 -20 -27 -19
-34 9 -6 26 18 96 34 96 6 0 10 5 10 10 0 19 -42 10 -47 -10 -6 -24 -22 -25
-49 -5 -31 23 -40 18 -36 -22 4 -44 -17 -79 -42 -70 -9 4 -16 17 -16 32 0 15
-7 33 -15 41 -8 9 -15 24 -15 34 0 16 -4 17 -35 9 -43 -12 -55 -6 -55 30 0 22
-4 27 -22 27 -19 -1 -24 5 -26 34 -4 44 -15 56 -34 36 -9 -8 -18 -12 -21 -9
-4 3 -13 3 -20 0 -12 -4 -13 -15 -6 -53 5 -26 7 -56 4 -65 -8 -24 -44 -12 -56
19 -5 14 -17 30 -25 37 -19 13 -16 81 4 77 6 -1 12 2 12 8 0 5 -3 10 -8 10 -4
0 -7 14 -7 31 0 19 -7 36 -17 42 -25 16 -32 3 -19 -34 6 -18 7 -37 2 -43 -4
-6 -9 -26 -9 -44 0 -17 -3 -41 -7 -51 -4 -14 0 -21 16 -26 22 -7 22 -8 4 -21
-16 -12 -21 -11 -37 6 -11 12 -22 36 -25 56 -3 19 -9 37 -13 39 -10 6 -45 -51
-54 -87 -3 -16 -13 -28 -21 -28 -10 0 -15 10 -15 28 0 37 -45 60 -60 31 -6
-11 -21 -19 -36 -19 -14 0 -53 -15 -87 -32 -51 -27 -58 -34 -39 -36 15 -2 22
-9 18 -17 -8 -22 43 -26 57 -4 15 25 37 24 37 0 0 -10 11 -29 25 -42 13 -13
25 -27 25 -31 0 -14 -28 -8 -34 7 -3 8 -12 15 -20 15 -7 0 -16 7 -20 15 -7 19
-26 20 -26 1 0 -13 -49 -56 -63 -56 -3 0 -7 10 -9 23 -2 16 -11 23 -31 25 -15
2 -27 9 -26 15 5 43 0 49 -36 43 -43 -8 -47 9 -13 57 14 19 21 43 20 64 -2 18
2 33 8 33 5 0 10 -6 10 -14 0 -7 7 -19 15 -26 12 -10 15 -9 15 6 0 34 -33 189
-43 202 -15 19 -21 15 -41 -29 -22 -48 -40 -58 -65 -35 -24 22 -65 5 -81 -35
-10 -24 -9 -32 10 -57 17 -23 21 -37 15 -59 -12 -46 -14 -123 -5 -148 12 -32
1 -65 -21 -65 -10 0 -20 4 -23 8 -3 5 -6 63 -7 129 -2 106 -5 122 -20 126 -23
6 -47 -21 -60 -67 -10 -38 -41 -62 -62 -49 -13 8 -18 9 -54 11 -13 1 -23 9
-23 16 0 12 -6 13 -31 4 -40 -14 -76 2 -85 37 -3 14 -10 25 -15 25 -5 0 -4 9
3 19 15 24 59 46 67 33 9 -14 51 -25 51 -14 0 6 -8 13 -17 17 -15 5 -12 9 15
22 35 17 52 12 33 -11 -9 -11 -7 -15 8 -19 11 -3 22 -3 24 0 10 9 -6 43 -24
48 -15 5 -18 16 -16 67 1 54 -1 63 -25 82 -14 11 -35 36 -45 55 -24 44 -66 76
-89 67 -14 -6 -13 -10 12 -31 16 -14 34 -25 40 -25 7 0 15 -21 19 -47 4 -29
15 -53 28 -63 19 -15 20 -21 9 -44 -6 -14 -18 -26 -26 -26 -8 0 -38 -12 -67
-27 -37 -20 -54 -24 -57 -15 -11 33 -62 -11 -62 -53 0 -31 -7 -31 -36 0 -23
25 -54 34 -54 15 0 -6 7 -24 15 -41 11 -19 15 -50 13 -87 -3 -53 -4 -55 -16
-33 -8 12 -18 53 -23 89 -15 107 -30 100 -37 -18 -4 -67 -2 -81 12 -86 18 -7
22 -40 6 -46 -6 -2 -14 -23 -18 -48 l-8 -45 -17 48 c-13 39 -14 58 -6 105 9
45 8 58 -3 66 -8 6 -12 19 -10 29 4 21 -16 49 -29 41 -5 -3 -9 3 -9 12 0 32
-11 7 -13 -30 -2 -20 -7 -36 -12 -36 -6 1 -9 12 -7 25 3 25 -11 34 -23 15 -10
-16 -45 -11 -72 10 -30 24 -49 25 -60 5 -7 -12 -13 -12 -33 -2 -16 8 -42 10
-70 6 -25 -3 -46 -2 -48 2 -6 15 -22 10 -22 -6 0 -7 7 -18 16 -23 11 -6 17
-26 19 -63 2 -49 2 -51 -8 -22 l-10 33 -26 -30 -26 -30 0 42 c0 33 4 43 18 46
18 4 20 15 8 46 -7 18 -9 16 -22 -12 -14 -33 -29 -42 -29 -18 0 18 -27 41 -32
27 -2 -7 -8 -7 -18 0 -11 8 -12 12 -2 16 6 2 12 13 12 24 0 10 6 18 13 16 6
-1 11 6 9 15 -1 9 2 19 8 23 6 4 7 -1 3 -12 -3 -10 -3 -15 2 -11 4 4 14 3 21
-3 13 -11 -17 100 -36 133 -12 22 -13 28 -1 28 5 0 12 -10 16 -22 3 -13 13
-40 22 -61 13 -31 20 -36 37 -31 12 4 23 11 24 15 2 5 10 9 18 9 8 0 14 7 14
15 0 9 12 18 30 22 21 4 30 11 30 25 0 31 64 160 98 198 18 19 32 38 32 42 0
12 54 58 68 58 7 0 17 -11 22 -25 5 -14 16 -28 24 -31 16 -6 24 -23 36 -72 l8
-34 -34 6 c-26 5 -34 4 -34 -8 0 -19 27 -32 62 -30 15 0 36 -7 46 -16 10 -10
31 -17 48 -17 16 0 36 -2 44 -6 11 -5 21 7 40 49 28 64 50 82 122 100 39 10
54 11 69 1 15 -9 21 -9 27 0 8 12 24 16 64 14 32 -1 33 -21 5 -61 -33 -47 -11
-87 42 -77 17 4 36 0 47 -8 29 -22 64 -19 64 5 0 11 7 20 15 20 9 0 15 9 15
21 0 15 4 19 16 15 9 -3 20 -6 25 -6 5 0 9 -7 9 -15 0 -23 72 -20 95 5 17 18
16 38 -1 84 -5 12 0 16 23 16 26 0 31 -5 42 -40 12 -42 31 -54 31 -20 0 11 4
20 10 20 10 0 3 -54 -11 -82 -22 -42 5 -56 44 -23 17 15 29 38 33 64 6 37 5
41 -15 41 -11 0 -21 -4 -21 -10 0 -5 -9 -1 -20 10 -26 26 -25 40 1 40 29 0 59
18 59 36 0 30 -70 154 -88 154 -13 0 -14 2 -4 9 8 5 11 17 7 33 -5 18 -2 27 8
31 10 4 13 13 10 26 -3 12 -1 21 6 21 6 0 11 -6 11 -14 0 -18 49 -76 50 -59 0
6 -5 15 -10 18 -6 3 -7 17 -4 29 3 15 0 25 -9 29 -8 3 -17 24 -21 46 -4 28
-11 41 -22 41 -11 0 -15 -6 -11 -20 3 -10 -1 -24 -9 -31 -8 -6 -14 -7 -14 -2
0 6 -12 9 -27 7 -16 -2 -20 -1 -10 2 9 3 17 12 17 20 0 11 -6 13 -20 9 -14 -5
-20 -2 -20 10 0 9 -6 15 -12 12 -7 -2 -12 -11 -10 -18 2 -7 -4 -19 -13 -25
-15 -11 -14 -13 4 -19 27 -8 27 -25 0 -25 -19 0 -20 -2 -8 -17 11 -13 11 -17
2 -20 -20 -7 -15 -23 7 -23 19 0 28 -24 13 -33 -5 -2 -2 -2 5 -1 7 2 25 1 40
-2 23 -5 28 -11 29 -37 1 -32 1 -32 -44 -28 -31 2 -41 6 -32 12 17 11 -94 1
-136 -12 -20 -6 -31 -6 -33 1 -2 5 -12 10 -23 10 -10 0 -19 5 -19 10 0 6 -23
10 -51 10 -52 0 -62 19 -11 21 52 2 -72 22 -135 21 -35 0 -63 4 -63 9 0 5 6 9
14 9 8 0 18 5 22 12 5 8 -8 9 -48 5 -42 -5 -59 -3 -67 7 -9 11 -9 15 1 20 7 3
-4 3 -25 0 -31 -5 -36 -4 -31 10 3 9 2 16 -2 16 -18 0 -82 -26 -97 -39 -12 -9
-21 -10 -36 -1 -26 13 -27 27 -3 32 23 6 -80 28 -128 28 -21 0 -40 5 -42 12
-2 6 -24 14 -49 18 -26 3 -43 11 -41 18 4 20 -27 13 -55 -13 -24 -21 -25 -25
-10 -31 9 -3 17 -13 17 -20 0 -11 -12 -15 -43 -14 -75 2 -236 -8 -246 -15 -6
-3 -11 -15 -11 -25 0 -25 -128 -170 -151 -170 -15 0 -24 5 -22 11 1 3 -9 4
-22 1 -14 -2 -25 -11 -25 -19 0 -8 -5 -11 -11 -8 -6 4 -8 13 -5 21 8 20 -30
18 -52 -4 -46 -43 -57 -47 -94 -41 -21 3 -38 3 -38 -1 0 -4 -8 -11 -17 -14
-10 -4 -31 -14 -48 -23 -16 -9 -47 -17 -68 -19 -51 -3 -57 -11 -28 -35 18 -15
20 -19 7 -19 -9 0 -27 -6 -39 -14 -12 -8 -35 -17 -52 -19 -22 -3 -29 -9 -27
-22 3 -14 -2 -17 -22 -13 -18 4 -26 1 -26 -9 0 -7 -11 -18 -25 -23 -27 -10
-32 -24 -14 -36 12 -7 8 -99 -5 -111 -3 -3 -17 0 -31 7 -23 12 -28 12 -47 -7
-20 -21 -20 -23 -5 -62 12 -29 14 -48 8 -65 -12 -29 3 -46 38 -46 13 0 41 -8
62 -17 34 -14 38 -20 33 -42 -10 -43 -27 -62 -66 -76 -44 -15 -61 -4 -48 31 6
14 6 33 0 46 -6 15 -9 17 -9 7 -1 -20 -37 -53 -50 -45 -5 4 -13 1 -16 -5 -4
-6 2 -13 15 -16 16 -4 18 -8 8 -14 -19 -12 -25 -11 -45 10 -10 10 -33 21 -52
23 -29 4 -34 2 -43 -24 -12 -34 -28 -37 -28 -5 0 35 -7 37 -53 12 -26 -14 -41
-28 -39 -38 1 -8 -2 -18 -8 -22 -5 -3 -7 -17 -4 -31 4 -14 2 -24 -5 -24 -6 0
-11 9 -11 20 0 14 -7 20 -22 21 l-23 2 22 4 c13 2 23 7 23 11 0 4 3 18 6 32 5
23 4 24 -9 8 -20 -25 -77 -36 -77 -15 0 8 6 18 13 21 9 5 9 7 0 12 -20 9 -15
34 6 34 11 0 23 5 26 10 3 6 12 10 20 10 39 0 91 95 114 210 5 25 16 74 24
110 8 36 12 70 10 77 -6 15 -35 17 -48 4 -16 -14 -55 6 -55 28 0 24 37 61 61
61 10 0 21 5 24 10 3 6 16 10 27 10 26 0 58 27 58 49 0 17 33 75 54 96 7 7 30
22 52 33 77 39 90 80 44 137 -24 30 -30 45 -25 65 4 14 9 45 12 70 8 68 27 90
78 90 57 0 59 6 104 257 14 78 31 133 56 184 41 83 42 89 15 89 -35 0 -89 32
-100 61 -15 35 0 93 31 120 21 18 21 30 4 71 -4 10 1 24 15 38 l22 22 -20 21
-21 20 -32 -51 c-18 -29 -35 -52 -40 -52 -4 0 -21 -18 -37 -41 -17 -22 -45
-51 -63 -65 -87 -64 -94 7 -14 135 66 105 147 222 170 244 49 48 115 50 149 4
17 -23 21 -45 24 -119 1 -63 7 -94 17 -105 8 -8 15 -19 15 -24 0 -5 7 -9 15
-9 8 0 15 7 15 16 0 8 5 12 10 9 6 -3 10 1 10 9 0 10 10 16 28 17 15 1 41 2
58 3 28 2 30 0 26 -23 -4 -21 -2 -24 9 -13 7 6 23 12 35 12 12 0 34 10 49 22
16 12 37 23 49 23 11 1 22 7 24 13 2 7 13 12 25 12 32 1 132 35 132 46 0 5 4
8 8 6 4 -1 18 3 30 10 12 6 57 13 99 15 42 2 125 10 184 18 59 8 128 15 153
16 25 0 55 4 66 9 17 7 16 9 -10 10 -16 1 -24 4 -17 7 6 2 12 14 12 26 0 16
12 27 39 40 20 9 45 17 54 17 9 0 19 5 22 10 3 6 15 10 26 10 10 0 19 -4 19
-10 0 -6 37 -10 90 -10 88 0 90 -1 122 -33 35 -35 63 -38 84 -9 14 19 44 9 51
-16 2 -10 18 -23 34 -29 l29 -11 0 58 c0 38 5 62 15 70 17 14 55 4 55 -16 0
-9 9 -14 28 -13 15 1 41 -1 57 -5 23 -5 25 -4 10 3 -16 8 -12 10 23 10 23 1
42 -3 42 -8 0 -10 84 -22 161 -22 30 -1 59 -5 64 -9 10 -8 15 -10 38 -10 7 -1
5 -6 -5 -14 -24 -18 -23 -23 9 -30 17 -5 29 -3 35 6 6 8 11 9 14 3 4 -10 97
-9 124 2 8 4 35 7 60 8 25 1 79 7 120 14 41 6 108 16 148 21 87 12 148 41 165
78 6 15 14 29 17 32 3 3 14 18 24 33 10 16 38 38 63 49 40 18 58 19 136 13
111 -8 124 -13 170 -62 36 -38 38 -39 104 -37 38 1 93 -4 124 -11 l57 -13 6
39 c7 42 36 78 79 97 43 19 81 14 122 -14 21 -14 43 -23 49 -19 23 11 67 43
162 116 128 98 134 101 172 70z m-2598 -371 c0 -5 -4 -10 -10 -10 -5 0 -10 5
-10 10 0 6 5 10 10 10 6 0 10 -4 10 -10z m140 -11 c0 -11 -4 -18 -10 -14 -5 3
-7 12 -3 20 7 21 13 19 13 -6z m3670 -3 c0 -3 -4 -8 -10 -11 -5 -3 -10 -1 -10
4 0 6 5 11 10 11 6 0 10 -2 10 -4z m38 -48 c-6 -18 -28 -21 -28 -4 0 9 7 16
16 16 9 0 14 -5 12 -12z m807 -73 c35 -3 44 -2 30 4 -14 7 -15 10 -5 10 18 1
60 -26 60 -38 0 -13 -49 -31 -85 -31 -19 0 -35 -4 -35 -10 0 -19 -96 -11 -121
10 l-24 20 22 19 c12 10 20 21 17 24 -5 5 21 3 141 -8z m-397 -10 c17 -5 21
-12 17 -26 -4 -13 -2 -19 9 -19 9 0 16 -4 16 -10 0 -5 7 -10 15 -10 11 0 15
-12 15 -49 0 -28 -5 -53 -10 -56 -6 -4 -9 -19 -8 -33 2 -21 -2 -28 -20 -30
-12 -2 -20 -7 -17 -12 3 -4 -7 -11 -22 -15 -17 -4 -29 -2 -31 4 -2 6 -9 11
-16 11 -22 0 -49 39 -49 70 0 17 -4 30 -9 30 -4 0 -8 7 -8 15 0 8 -6 15 -14
15 -8 0 -13 10 -12 27 1 19 10 31 33 42 17 9 37 26 42 39 7 15 17 22 29 18 9
-2 27 -7 40 -11z m-5448 -84 c0 -14 -18 -23 -31 -15 -8 4 -7 9 2 15 18 11 29
11 29 0z m5746 -28 c-10 -10 -19 5 -10 18 6 11 8 11 12 0 2 -7 1 -15 -2 -18z
m-6649 -101 c13 -18 16 -35 7 -44 -3 -3 -24 4 -47 15 -23 11 -53 20 -67 19
l-25 -2 23 12 c12 6 22 15 22 21 0 15 72 -3 87 -21z m-93 -77 c10 -14 15 -14
49 0 31 13 37 13 37 1 0 -8 -11 -17 -25 -20 -16 -4 -22 -11 -19 -21 9 -22 -15
-46 -40 -41 -11 3 -33 7 -47 10 -14 3 -31 16 -37 31 -10 22 -9 26 16 39 35 20
52 20 66 1z m6002 -12 c-10 -10 -19 5 -10 18 6 11 8 11 12 0 2 -7 1 -15 -2
-18z m762 -3 c47 -29 57 -63 38 -126 -12 -37 -23 -54 -43 -63 -14 -7 -29 -8
-32 -4 -8 10 -45 28 -94 45 -22 7 -43 21 -48 30 -5 10 -17 18 -25 18 -8 0 -13
4 -10 9 4 5 1 11 -5 13 -9 3 -9 13 0 38 9 28 17 35 38 37 15 0 29 6 31 12 7
20 114 13 150 -9z m-223 -276 c59 -40 70 -54 70 -95 0 -46 -36 -89 -74 -89
-37 1 -107 34 -136 66 -35 38 -35 95 1 123 37 29 92 27 139 -5z m-6186 -144
c54 -27 68 -77 34 -119 -21 -24 -49 -31 -153 -38 -70 -5 -76 -3 -98 19 -28 31
-35 79 -16 107 33 46 168 65 233 31z m7094 -44 c9 -7 17 -22 17 -34 0 -14 21
-35 73 -68 39 -27 75 -52 79 -58 9 -14 2 -41 -17 -64 -17 -19 -18 -19 -67 0
-62 23 -93 21 -93 -7 0 -11 -10 -30 -23 -42 -19 -19 -34 -23 -93 -23 -48 0
-69 4 -69 13 0 6 -12 -1 -25 -16 -14 -15 -25 -25 -25 -22 0 3 -10 -1 -22 -9
-30 -21 -31 -21 -51 13 -28 48 2 78 52 52 14 -8 21 -4 35 19 14 24 15 33 4 50
-7 11 -18 20 -25 20 -26 0 -15 66 17 99 25 28 33 31 64 25 32 -5 37 -3 45 19
6 14 18 30 28 36 25 14 75 13 96 -3z m-901 -113 c26 -25 36 -28 111 -29 100
-1 153 -20 163 -60 4 -15 2 -35 -5 -45 -14 -23 -14 -59 0 -59 5 0 17 -17 26
-37 20 -50 19 -49 44 -27 15 13 35 19 68 18 135 -1 210 -71 148 -138 -18 -19
-30 -24 -48 -20 -13 4 -40 8 -59 11 -65 8 -80 13 -115 44 -27 24 -38 29 -48
20 -12 -9 -92 -3 -132 11 -5 1 -21 -8 -34 -21 -23 -23 -25 -23 -38 -6 -7 11
-13 26 -13 36 0 18 -26 33 -41 23 -5 -3 -9 4 -9 16 0 22 -52 60 -82 60 -10 0
-22 -9 -28 -21 -10 -17 -8 -21 9 -26 29 -7 26 -21 -5 -29 -41 -10 -77 7 -97
46 -15 31 -15 36 -2 46 26 19 18 44 -14 44 -30 0 -32 3 -45 61 -10 44 27 66
126 73 26 2 54 10 63 20 22 21 24 21 57 -11z m-6432 -146 c53 -26 66 -37 68
-59 2 -17 -4 -34 -17 -47 -17 -17 -29 -19 -78 -14 -124 11 -180 48 -167 110
12 61 83 65 194 10z m2515 -107 c-3 -5 -10 -10 -16 -10 -5 0 -9 5 -9 10 0 6 7
10 16 10 8 0 12 -4 9 -10z m32 -22 c-3 -8 -6 -5 -6 6 -1 11 2 17 5 13 3 -3 4
-12 1 -19z m-717 -42 c0 -2 -7 -6 -15 -10 -8 -3 -15 -1 -15 4 0 6 7 10 15 10
8 0 15 -2 15 -4z m325 -96 c-3 -5 -11 -10 -16 -10 -6 0 -7 5 -4 10 3 6 11 10
16 10 6 0 7 -4 4 -10z m-1047 -84 c6 -80 -22 -175 -79 -262 -26 -39 -49 -80
-51 -90 -1 -10 -7 -17 -13 -16 -13 1 -26 61 -19 91 4 20 39 78 55 91 7 5 50
136 70 212 16 59 31 49 37 -26z m4712 34 c0 -5 -5 -10 -11 -10 -5 0 -7 5 -4
10 3 6 8 10 11 10 2 0 4 -4 4 -10z m190 -20 c0 -5 -9 -10 -20 -10 -11 0 -20 5
-20 10 0 6 9 10 20 10 11 0 20 -4 20 -10z m-193 -47 c-3 -10 -5 -4 -5 12 0 17
2 24 5 18 2 -7 2 -21 0 -30z m220 -13 c3 -11 9 -20 13 -20 9 0 40 -131 40
-169 -1 -25 -1 -25 -15 -7 -8 11 -15 32 -15 48 0 24 -4 28 -30 28 -25 0 -30 5
-39 37 -6 20 -8 39 -6 42 3 2 5 -2 5 -10 0 -8 7 -1 15 14 8 15 12 34 8 42 -3
8 0 15 7 15 6 0 14 -9 17 -20z m613 -21 c24 -44 -16 -64 -75 -37 -26 12 -34
43 -12 51 32 14 77 6 87 -14z m-4375 -49 c3 -5 1 -10 -4 -10 -6 0 -11 5 -11
10 0 6 2 10 4 10 3 0 8 -4 11 -10z m65 6 c0 -2 -7 -7 -16 -10 -8 -3 -12 -2 -9
4 6 10 25 14 25 6z m4644 -87 c5 -25 9 -29 26 -24 11 3 25 3 32 -1 7 -5 21 -9
30 -11 24 -4 62 -11 66 -12 1 -1 -4 -14 -13 -30 -8 -16 -11 -31 -6 -33 4 -2
-1 -12 -12 -23 -20 -20 -20 -20 -13 10 6 28 5 29 -9 11 -14 -18 -15 -18 -26
10 -26 66 -29 70 -25 24 3 -25 3 -37 0 -27 -3 9 -10 15 -15 11 -6 -3 -18 0
-27 7 -12 10 -11 7 3 -11 l20 -24 -27 17 c-24 15 -28 15 -28 2 0 -12 -7 -14
-27 -9 -16 4 -32 12 -38 19 -5 6 -17 10 -25 8 -8 -2 -4 2 9 10 16 9 20 17 12
21 -6 4 -9 12 -5 17 3 5 10 6 16 3 6 -4 17 2 25 12 8 10 17 18 21 16 4 -1 8 9
10 23 4 32 18 24 26 -16z m-642 -31 c11 -31 21 -44 41 -49 16 -4 25 -3 21 2
-3 5 -11 9 -18 9 -11 0 -36 39 -36 57 0 3 16 3 35 1 19 -2 35 0 35 4 0 4 5 8
10 8 13 0 27 -36 45 -115 l14 -59 -24 29 c-13 17 -24 25 -25 20 0 -6 5 -16 11
-22 14 -14 6 -50 -16 -78 -15 -19 -15 -19 -9 10 4 21 3 26 -4 16 -5 -7 -15
-10 -21 -6 -8 5 -10 -1 -5 -19 3 -14 2 -26 -3 -26 -5 0 -20 34 -32 75 -13 42
-31 80 -40 85 -12 7 -13 12 -4 18 10 6 10 17 3 42 -12 42 -12 40 -1 40 5 0 16
-19 23 -42z m159 15 c1 -16 2 -16 6 0 3 13 10 16 21 11 10 -4 31 -7 49 -6 17
1 44 -5 60 -13 15 -8 36 -15 45 -15 25 0 32 -19 14 -39 -22 -24 -20 -31 9 -31
27 0 32 -9 13 -28 -9 -9 -9 -12 0 -12 9 0 10 -21 6 -77 -6 -91 -11 -113 -23
-95 -4 7 -4 36 -1 65 5 31 3 53 -2 56 -6 2 -4 7 3 12 7 4 11 11 7 14 -7 7
-102 26 -143 28 -40 2 -55 19 -67 70 -5 23 -11 50 -14 60 -3 9 -1 17 5 17 6 0
12 -8 12 -17z m280 -91 c-12 -33 -18 -68 -15 -76 3 -9 1 -16 -5 -16 -12 0 -15
20 -12 99 2 64 17 90 38 68 12 -12 11 -23 -6 -75z m420 37 c5 -11 18 -19 28
-19 10 0 24 -7 31 -15 10 -12 9 -16 -4 -21 -22 -9 -20 -24 4 -24 20 0 26 -16
12 -35 -8 -11 -38 -12 -62 -3 -8 4 -22 9 -30 11 -8 3 3 6 25 7 34 2 36 3 15 9
-24 7 -24 7 -5 19 14 8 16 12 5 12 -9 0 -6 6 10 16 17 10 19 13 5 9 -11 -4
-33 -11 -48 -16 -16 -4 -35 -13 -43 -20 -17 -14 -18 -5 -3 23 9 16 8 19 -2 13
-9 -6 -10 -3 -5 11 5 10 10 26 13 35 6 21 40 13 54 -12z m-1341 -17 c0 -20
-22 -9 -31 16 -7 20 -6 21 11 9 11 -6 20 -18 20 -25z m-5042 17 c-2 -6 -8 -10
-13 -10 -5 0 -11 4 -13 10 -2 6 4 11 13 11 9 0 15 -5 13 -11z m5166 -16 c23
-47 29 -90 12 -90 -8 0 -13 3 -11 7 2 3 -2 24 -10 46 -23 64 -18 88 9 37z
m-6147 -15 c30 -11 34 -16 31 -43 -4 -37 -41 -58 -86 -49 -25 5 -34 14 -43 42
-10 31 -9 37 7 49 22 16 48 17 91 1z m1324 -52 c-12 -25 -21 -54 -21 -65 0
-12 -5 -20 -12 -18 -7 1 -15 -11 -18 -28 -3 -16 -11 -29 -18 -27 -7 1 -12 -7
-12 -18 0 -32 -17 -23 -25 13 -12 45 -7 77 16 105 10 13 16 28 13 33 -3 5 -1
9 5 9 5 0 8 -15 7 -32 -2 -18 -1 -23 1 -10 2 12 9 20 14 16 5 -3 8 -2 7 3 -4
13 26 53 39 53 7 0 13 8 14 18 0 9 3 12 5 5 3 -6 -4 -32 -15 -57z m4776 42
c-3 -8 -6 -5 -6 6 -1 11 2 17 5 13 3 -3 4 -12 1 -19z m234 -25 c-7 -14 -7 -23
1 -31 7 -7 4 -23 -11 -54 -11 -25 -21 -50 -21 -56 0 -16 17 -15 23 1 3 6 6 1
6 -13 1 -15 6 -31 12 -37 6 -6 8 -20 4 -32 -6 -20 -7 -20 -30 7 -20 23 -25 43
-28 105 -2 42 0 77 4 77 5 0 6 7 2 15 -7 20 27 59 40 46 5 -5 5 -17 -2 -28z
m1019 -8 c-14 -8 -29 -14 -35 -14 -5 0 1 6 15 14 14 8 30 14 35 14 6 0 -1 -6
-15 -14z m-2320 -30 c34 -18 36 -23 15 -51 -8 -10 -15 -27 -15 -36 0 -25 -17
-22 -35 6 -11 17 -14 35 -9 60 7 41 6 41 44 21z m947 -43 c13 -52 16 -95 7
-129 -7 -26 -24 -21 -24 7 0 10 -11 32 -25 48 -14 17 -25 38 -25 48 0 11 4 15
8 9 4 -5 18 -19 31 -30 l24 -20 -7 40 c-3 22 -9 51 -12 65 -4 14 -3 21 2 17 4
-4 14 -29 21 -55z m151 -58 c13 -58 26 -113 30 -122 4 -12 -2 -10 -26 7 -18
12 -35 34 -38 49 -3 15 -10 39 -15 53 -14 36 -19 99 -8 99 5 0 9 7 9 15 0 8 6
12 13 10 7 -3 23 -53 35 -111z m111 72 c1 -6 -5 -1 -13 9 -8 11 -12 24 -8 29
5 9 20 -17 21 -38z m-4912 12 c-3 -8 -6 -5 -6 6 -1 11 2 17 5 13 3 -3 4 -12 1
-19z m5120 -25 c-3 -10 -5 -4 -5 12 0 17 2 24 5 18 2 -7 2 -21 0 -30z m-3747
-18 c0 -32 -2 -34 -19 -23 -11 7 -18 14 -17 18 2 3 6 13 9 23 11 29 27 19 27
-18z m4109 -77 l-12 -23 -8 30 c-6 21 -3 40 9 66 l17 36 3 -43 c2 -24 -2 -54
-9 -66z m420 78 c-10 -8 -15 -45 -17 -141 -2 -71 -7 -134 -11 -140 -4 -5 -7
-25 -5 -42 1 -18 -2 -33 -7 -33 -5 0 -9 28 -10 63 l0 62 -19 -40 c-28 -59 -24
-33 5 35 14 33 25 68 25 79 0 25 -20 38 -31 20 -5 -8 -9 -9 -9 -3 0 6 7 17 15
24 8 7 13 16 10 20 -3 5 -1 10 5 12 14 4 21 66 8 74 -6 4 -14 0 -19 -7 -7 -12
-9 -11 -9 1 0 9 14 20 33 26 37 11 57 6 36 -10z m-2105 2 c3 -7 7 -26 11 -43
l7 -30 -21 24 c-12 13 -21 29 -21 35 0 6 -5 4 -10 -4 -9 -13 -11 -13 -20 0 -5
8 -10 18 -10 23 0 12 60 8 64 -5z m-1024 -13 c0 -8 5 -24 12 -34 9 -15 7 -24
-12 -51 l-23 -33 23 -19 c15 -12 26 -15 30 -8 4 6 15 -6 25 -27 10 -21 22 -46
26 -55 13 -26 11 -38 -7 -38 -11 0 -15 -9 -14 -32 1 -18 2 -37 1 -43 -2 -18
-21 19 -21 42 0 12 -6 23 -12 26 -10 3 -10 7 1 20 7 9 17 14 22 11 10 -6 11
11 3 43 -6 21 -7 21 -34 -8 l-28 -31 5 26 c3 15 -4 45 -18 73 -13 26 -22 52
-21 57 2 4 -2 14 -9 22 -6 8 -8 22 -5 31 6 15 8 15 17 3 8 -13 10 -13 18 -1 5
8 7 20 4 28 -3 7 0 13 6 13 6 0 11 -7 11 -15z m2301 -8 c-13 -13 -26 -3 -16
12 3 6 11 8 17 5 6 -4 6 -10 -1 -17z m-336 -90 c-4 -29 -12 -61 -18 -72 -10
-19 -11 -18 -23 10 -18 41 -17 90 2 127 l16 30 15 -21 c11 -17 13 -35 8 -74z
m1214 52 c7 -23 10 -44 6 -47 -10 -11 -33 22 -38 56 -8 47 17 41 32 -9z
m-1728 10 c8 -16 8 -27 -2 -45 -10 -19 -10 -29 0 -51 11 -24 11 -25 -4 -13
-15 12 -16 10 -10 -22 4 -23 3 -38 -5 -43 -21 -13 -33 13 -31 69 1 45 -2 54
-14 50 -8 -4 -15 -1 -15 4 0 6 -9 14 -20 17 -43 14 -6 55 50 55 30 0 42 -5 51
-21z m1399 -9 c4 0 6 -8 3 -19 -3 -12 2 -20 16 -24 22 -5 29 7 11 18 -5 3 -10
10 -10 16 0 16 35 -12 47 -38 10 -20 9 -28 -2 -40 -8 -8 -15 -24 -15 -36 -1
-20 -2 -20 -25 8 -14 17 -25 39 -26 50 0 18 -1 17 -10 -4 -6 -15 -6 -28 1 -36
8 -9 5 -14 -9 -18 -16 -4 -18 0 -14 27 3 17 7 33 9 35 2 2 -1 9 -6 16 -6 7 -5
23 3 44 7 21 13 27 15 17 2 -9 7 -16 12 -16z m-6220 -5 c0 -8 -4 -15 -10 -15
-5 0 -10 7 -10 15 0 8 5 15 10 15 6 0 10 -7 10 -15z m4500 -30 c0 -8 -4 -15
-10 -15 -5 0 -10 7 -10 15 0 8 5 15 10 15 6 0 10 -7 10 -15z m-4074 -31 c-3
-8 -10 -12 -16 -9 -7 4 -6 14 2 28 12 24 24 8 14 -19z m4554 15 c0 -5 -4 -9
-10 -9 -5 0 -10 7 -10 16 0 8 5 12 10 9 6 -3 10 -10 10 -16z m-4344 -10 c3 -5
2 -13 -1 -19 -6 -10 -55 16 -55 30 0 10 49 0 56 -11z m453 -16 c-1 -34 -2 -35
-9 -13 -11 36 -11 50 0 50 6 0 10 -17 9 -37z m3398 0 c27 -28 54 -29 78 -3 22
24 38 25 59 4 21 -21 20 -40 -4 -64 -12 -12 -18 -25 -15 -29 7 -12 -19 -21
-56 -21 -17 0 -28 -4 -25 -9 3 -4 7 -24 10 -44 4 -30 1 -37 -16 -43 -13 -4
-24 -1 -29 7 -14 22 -10 36 11 42 18 5 18 8 7 48 -13 43 -14 44 -57 44 -37 0
-46 4 -59 26 -8 15 -11 36 -8 52 6 23 10 25 45 20 20 -3 47 -17 59 -30z m457
21 c5 -13 2 -15 -16 -11 -12 4 -28 1 -35 -5 -16 -13 -17 4 -1 20 17 17 45 15
52 -4z m1873 -8 c16 -20 22 -22 36 -11 9 6 14 15 10 19 -4 4 0 4 10 0 9 -3 17
-8 17 -9 0 -11 -88 -65 -106 -65 -23 0 -36 20 -29 45 3 8 7 22 10 30 7 22 31
18 52 -9z m-2098 -17 c12 -12 20 -23 17 -26 -6 -6 -55 29 -56 40 0 13 16 7 39
-14z m488 -34 c22 -57 14 -71 -18 -33 -19 21 -27 88 -10 88 4 0 17 -25 28 -55z
m263 29 c0 -8 -4 -12 -10 -9 -5 3 -10 10 -10 16 0 5 5 9 10 9 6 0 10 -7 10
-16z m1489 -3 c9 -6 10 -11 2 -15 -6 -4 -8 -12 -5 -18 5 -7 2 -8 -7 -2 -8 5
-21 7 -31 6 -22 -4 -34 18 -17 29 18 11 40 11 58 0z m-6405 -35 c-3 -15 -8
-25 -11 -23 -2 3 -1 17 3 31 3 15 8 25 11 23 2 -3 1 -17 -3 -31z m4806 -1 c0
-8 -4 -15 -10 -15 -5 0 -10 7 -10 15 0 8 5 15 10 15 6 0 10 -7 10 -15z m-4537
-8 c7 -18 -3 -67 -14 -67 -5 0 -9 14 -9 30 0 17 -4 30 -10 30 -5 0 -10 5 -10
10 0 15 37 12 43 -3z m2646 -32 c0 -5 -4 -3 -9 5 -5 8 -9 22 -9 30 0 16 17
-16 18 -35z m2308 17 c0 -15 -2 -21 -4 -14 -3 6 -15 12 -28 12 -26 0 -42 16
-24 22 6 2 22 5 34 6 18 1 22 -3 22 -26z m-2057 2 c0 -8 -5 -12 -10 -9 -6 4
-8 11 -5 16 9 14 15 11 15 -7z m975 6 c3 -5 1 -10 -4 -10 -6 0 -11 5 -11 10 0
6 2 10 4 10 3 0 8 -4 11 -10z m465 -25 c0 -13 5 -27 10 -30 6 -3 10 -11 10
-18 0 -7 -6 -5 -16 4 -17 17 -29 83 -14 74 6 -4 10 -17 10 -30z m-285 5 c-3
-5 -14 -10 -23 -10 -15 0 -15 2 -2 10 20 13 33 13 25 0z m575 -5 c0 -8 -4 -15
-10 -15 -5 0 -7 7 -4 15 4 8 8 15 10 15 2 0 4 -7 4 -15z m-3953 -8 c6 -4 14
-3 18 3 4 6 28 8 58 6 43 -4 57 -10 78 -35 14 -17 31 -31 37 -31 7 0 12 -9 12
-21 0 -20 0 -20 -27 -2 -33 23 -63 19 -63 -8 0 -23 -13 -25 -30 -4 -9 11 -16
13 -24 5 -17 -17 -43 -11 -51 13 -7 21 -7 21 -12 2 -9 -35 -22 -40 -33 -11
-12 32 -33 25 -24 -8 4 -18 1 -25 -17 -29 -32 -9 -50 5 -65 49 -17 49 -18 71
-1 77 18 7 130 2 144 -6z m3243 -13 c0 -8 -4 -14 -9 -14 -11 0 -22 26 -14 34
9 9 23 -3 23 -20z m860 16 c0 -5 -2 -10 -4 -10 -3 0 -8 5 -11 10 -3 6 -1 10 4
10 6 0 11 -4 11 -10z m122 -8 c-7 -2 -10 -8 -7 -12 3 -5 1 -11 -5 -15 -5 -3
-10 -1 -10 5 0 6 -4 8 -10 5 -15 -9 -12 2 6 19 8 9 21 13 27 9 8 -5 8 -8 -1
-11z m-3344 -40 c2 -23 -2 -32 -16 -36 -14 -5 -25 -26 -38 -71 -16 -54 -22
-64 -39 -61 -27 4 -30 34 -6 88 11 25 17 48 15 51 -2 2 2 10 11 17 8 7 15 20
15 30 0 24 9 30 33 21 15 -6 23 -18 25 -39z m-1489 -5 c5 -18 19 -56 30 -84
12 -29 17 -53 12 -53 -23 0 -41 14 -41 32 0 12 -4 17 -12 12 -8 -5 -9 2 -5 25
4 20 1 46 -8 68 -18 44 -18 44 0 37 8 -3 19 -20 24 -37z m1719 20 c2 -12 -3
-17 -17 -17 -15 0 -21 6 -21 21 0 25 33 22 38 -4z m2732 -14 c0 -58 13 -71 42
-42 14 15 35 24 51 23 17 -1 33 7 42 18 9 14 20 18 34 13 13 -4 18 -11 14 -18
-4 -7 -6 -23 -5 -37 3 -24 2 -24 -13 -5 -15 19 -16 19 -71 -10 -31 -16 -65
-42 -76 -58 -25 -36 -48 -22 -30 18 11 25 7 74 -9 106 -5 9 -5 19 -2 23 15 15
23 4 23 -31z m640 23 c0 -8 -4 -17 -9 -20 -10 -7 -23 19 -14 28 11 11 23 6 23
-8z m-840 -6 c0 -5 -2 -10 -4 -10 -3 0 -8 5 -11 10 -3 6 -1 10 4 10 6 0 11 -4
11 -10z m485 1 c3 -5 1 -12 -5 -16 -5 -3 -10 1 -10 9 0 18 6 21 15 7z m-6182
-22 c-5 -46 -25 -125 -33 -133 -15 -15 -13 110 2 134 14 22 34 21 31 -1z
m5244 -11 c-3 -7 -5 -2 -5 12 0 14 2 19 5 13 2 -7 2 -19 0 -25z m193 17 c0 -8
-2 -15 -4 -15 -2 0 -6 7 -10 15 -3 8 -1 15 4 15 6 0 10 -7 10 -15z m1140 5 c0
-5 -5 -10 -11 -10 -5 0 -7 5 -4 10 3 6 8 10 11 10 2 0 4 -4 4 -10z m-1411 -43
c-12 -22 -42 -19 -47 6 -2 11 5 20 20 26 28 10 41 -5 27 -32z m1491 13 c0 -10
-4 -22 -10 -25 -6 -4 -10 7 -10 25 0 18 4 29 10 25 6 -3 10 -15 10 -25z
m-6176 4 c9 -23 8 -24 -19 -24 -28 0 -30 5 -12 25 16 19 24 18 31 -1z m-424
-21 c0 -40 -11 -74 -21 -67 -10 6 -12 55 -3 78 10 25 24 18 24 -11z m1293 13
c6 -16 -2 -28 -14 -20 -12 7 -11 34 0 34 5 0 11 -6 14 -14z m474 -8 c-3 -8 -6
-5 -6 6 -1 11 2 17 5 13 3 -3 4 -12 1 -19z m2133 -8 c0 -11 -4 -20 -10 -20 -5
0 -10 9 -10 20 0 11 5 20 10 20 6 0 10 -9 10 -20z m2360 10 c0 -5 -4 -10 -9
-10 -6 0 -13 5 -16 10 -3 6 1 10 9 10 9 0 16 -4 16 -10z m521 -7 c12 -15 12
-16 -3 -10 -22 8 -23 -6 -2 -28 9 -9 13 -19 10 -22 -12 -12 -57 42 -50 60 8
22 28 22 45 0z m-1351 -3 c0 -5 -4 -10 -10 -10 -5 0 -10 5 -10 10 0 6 5 10 10
10 6 0 10 -4 10 -10z m-630 -35 c0 -13 -5 -27 -11 -31 -17 -10 -32 12 -25 40
8 32 36 24 36 -9z m521 12 c-10 -9 -11 -8 -5 6 3 10 9 15 12 12 3 -3 0 -11 -7
-18z m260 -4 c-12 -20 -14 -14 -5 12 4 9 9 14 11 11 3 -2 0 -13 -6 -23z m619
6 c0 -6 -4 -7 -10 -4 -5 3 -10 11 -10 16 0 6 5 7 10 4 6 -3 10 -11 10 -16z
m1179 -34 c-1 -30 0 -58 4 -61 8 -8 -22 -54 -35 -54 -15 0 -5 134 11 154 21
25 23 20 20 -39z m-1899 -3 c0 -12 -6 -10 -25 8 -13 12 -22 27 -19 32 8 12 44
-21 44 -40z m980 33 c-7 -8 -17 -12 -22 -9 -6 4 -5 10 3 15 22 14 33 10 19 -6z
m-4700 -20 c0 -16 -6 -25 -15 -25 -8 0 -15 9 -15 21 0 11 5 17 10 14 6 -3 10
-1 10 4 0 6 2 11 5 11 3 0 5 -11 5 -25z m1290 -4 c16 -31 12 -41 -15 -41 -25
0 -31 13 -19 44 8 21 21 20 34 -3z m450 3 c0 -8 -4 -12 -10 -9 -5 3 -10 10
-10 16 0 5 5 9 10 9 6 0 10 -7 10 -16z m1736 -23 c13 -16 45 -35 71 -44 69
-22 153 -38 164 -31 5 3 9 0 9 -5 0 -6 5 -11 11 -11 7 0 9 9 5 24 -4 16 0 28
11 37 14 12 16 12 9 0 -5 -8 -4 -16 4 -21 9 -6 7 -13 -6 -29 -12 -13 -18 -33
-16 -52 6 -49 -19 -68 -81 -63 -29 3 -72 9 -97 14 -25 5 -69 12 -98 15 -29 3
-65 11 -80 19 -15 7 -39 16 -53 19 -80 19 -89 78 -19 122 43 27 79 32 99 13
11 -11 15 -10 24 5 15 22 14 22 43 -12z m112 6 c2 -12 -3 -17 -17 -17 -23 0
-24 1 -15 25 8 19 28 15 32 -8z m1052 13 c0 -5 -2 -10 -4 -10 -3 0 -8 5 -11
10 -3 6 -1 10 4 10 6 0 11 -4 11 -10z m-4694 -27 c-10 -10 -19 5 -10 18 6 11
8 11 12 0 2 -7 1 -15 -2 -18z m420 -40 c-3 -26 -6 -55 -6 -63 -3 -41 -26 -101
-41 -105 -17 -6 -93 -149 -105 -198 -7 -32 -27 -31 -32 2 -3 20 42 119 113
246 54 98 59 110 57 149 -1 28 2 36 10 28 6 -6 8 -30 4 -59z m3874 32 c0 -19
-4 -35 -10 -35 -11 0 -14 53 -3 63 11 12 13 8 13 -28z m967 -12 c-3 -10 -5 -2
-5 17 0 19 2 27 5 18 2 -10 2 -26 0 -35z m-5624 -58 l5 -70 -14 50 c-15 56
-19 130 -5 105 5 -8 11 -46 14 -85z m3355 68 c-2 -14 -8 -28 -14 -30 -17 -6
-26 27 -13 43 18 22 31 16 27 -13z m742 23 c0 -3 -4 -8 -10 -11 -5 -3 -10 -1
-10 4 0 6 5 11 10 11 6 0 10 -2 10 -4z m-2288 -23 c-6 -3 -9 -10 -6 -16 4 -7
1 -7 -7 1 -12 11 -12 14 1 22 8 5 17 6 20 3 3 -3 -1 -8 -8 -10z m401 -5 c30
-17 35 -27 30 -49 -8 -29 -30 -23 -44 14 -7 17 -14 35 -17 40 -6 10 5 9 31 -5z
m-2260 -32 c19 6 20 5 8 -10 -9 -11 -17 -13 -26 -6 -6 5 -15 7 -18 3 -9 -9 -9
11 0 34 7 16 8 15 11 -5 3 -18 8 -22 25 -16z m2957 -7 c0 -16 -2 -29 -4 -29
-2 0 -11 -2 -19 -5 -10 -4 -14 3 -15 26 -1 40 4 50 23 42 9 -3 15 -18 15 -34z
m2145 31 c3 -5 2 -10 -4 -10 -5 0 -13 5 -16 10 -3 6 -2 10 4 10 5 0 13 -4 16
-10z m-4708 -32 c-3 -7 -5 -2 -5 12 0 14 2 19 5 13 2 -7 2 -19 0 -25z m70 0
c-3 -7 -5 -2 -5 12 0 14 2 19 5 13 2 -7 2 -19 0 -25z m4070 -14 c-5 -48 -10
-48 -33 0 l-21 42 29 -4 c26 -4 28 -8 25 -38z m-3577 1 c0 -13 -4 -26 -9 -30
-5 -3 -13 -19 -16 -36 -4 -17 -16 -40 -27 -51 l-20 -20 5 33 c10 60 20 94 35
116 17 27 32 21 32 -12z m760 31 c0 -3 -4 -8 -10 -11 -5 -3 -10 -1 -10 4 0 6
5 11 10 11 6 0 10 -2 10 -4z m2725 -42 c-11 -9 -29 -22 -40 -30 -17 -13 -18
-16 -5 -24 32 -19 84 -62 68 -57 -41 14 -95 57 -94 74 3 42 56 83 81 61 6 -6
3 -15 -10 -24z m-4502 -54 c-3 -8 -5 -23 -4 -32 1 -10 -3 -18 -8 -18 -6 0 -11
10 -12 23 -1 21 -1 21 -9 -3 -4 -14 -8 -18 -9 -9 -1 8 -8 24 -17 35 -14 18
-15 16 -11 -23 6 -54 -10 -67 -19 -17 -7 39 -8 37 71 103 12 10 28 -38 18 -59z
m5042 58 c25 -11 32 -23 17 -31 -7 -5 -52 27 -52 37 0 8 6 8 35 -6z m-4388
-52 c-4 -9 -11 -16 -17 -16 -11 0 -14 33 -3 44 11 10 26 -11 20 -28z m3743 30
c0 -2 -7 -6 -15 -10 -8 -3 -15 -1 -15 4 0 6 7 10 15 10 8 0 15 -2 15 -4z
m-3903 -71 c13 -54 5 -75 -28 -75 -16 0 -19 8 -19 49 0 94 26 108 47 26z
m4842 -52 c-16 -30 -33 -25 -37 11 -4 36 6 78 17 71 5 -2 13 3 17 13 6 12 9 5
12 -27 2 -25 -2 -55 -9 -68z m-5309 51 c0 -21 -4 -33 -10 -29 -5 3 -10 19 -10
36 0 16 5 29 10 29 6 0 10 -16 10 -36z m-1066 10 c3 -8 2 -12 -4 -9 -6 3 -10
10 -10 16 0 14 7 11 14 -7z m6251 -83 c-2 -2 -18 8 -34 22 -16 13 -27 27 -24
31 3 3 -2 8 -11 12 -9 3 -16 13 -16 22 0 8 19 -6 44 -34 25 -27 43 -51 41 -53z
m-825 81 c0 -15 -52 -82 -64 -82 -10 0 7 35 26 53 10 10 18 22 18 27 0 6 5 10
10 10 6 0 10 -3 10 -8z m1516 -19 c-10 -10 -19 5 -10 18 6 11 8 11 12 0 2 -7
1 -15 -2 -18z m-4952 -59 c10 -4 16 -18 16 -40 0 -54 -42 -146 -59 -129 -2 3
2 11 9 20 8 10 11 30 6 61 -5 40 0 94 9 94 2 0 10 -3 19 -6z m3359 -29 c-3 -8
-9 -15 -14 -15 -10 0 -12 24 -3 33 11 11 24 -3 17 -18z m-206 -47 c-3 -7 -5
-2 -5 12 0 14 2 19 5 13 2 -7 2 -19 0 -25z m1353 -1 c0 -7 -10 -17 -23 -23
-19 -9 -23 -7 -24 8 -1 10 2 16 7 13 4 -3 11 2 14 11 6 17 26 10 26 -9z
m-1480 -7 c0 -5 -4 -10 -9 -10 -6 0 -13 5 -16 10 -3 6 1 10 9 10 9 0 16 -4 16
-10z m-1050 -32 c0 -17 -18 -44 -24 -37 -8 7 5 49 15 49 5 0 9 -6 9 -12z
m-350 -22 c0 -8 -4 -18 -10 -21 -5 -3 -10 -4 -10 -1 0 2 -3 11 -6 20 -4 11 -1
16 10 16 9 0 16 -6 16 -14z m230 -4 c0 -24 -26 -76 -46 -93 -19 -15 -94 -162
-94 -183 0 -17 -18 -31 -28 -21 -3 3 0 10 7 14 10 6 10 10 2 16 -8 5 -2 24 20
63 17 32 37 60 43 64 6 4 7 10 4 14 -8 7 12 49 50 107 27 40 42 47 42 19z
m1789 -25 c6 -12 25 -30 42 -40 17 -9 33 -26 36 -37 6 -22 18 -26 28 -10 3 6
14 10 25 10 10 0 20 7 24 15 3 8 14 15 25 15 20 0 31 -18 31 -54 0 -13 9 -31
20 -41 25 -22 29 -115 6 -134 -35 -29 -120 -7 -138 36 -14 33 -35 55 -68 73
-12 7 -43 30 -67 53 -24 22 -46 37 -50 33 -14 -13 -11 -52 8 -103 l19 -53 -31
0 c-16 0 -43 6 -58 14 -25 13 -31 13 -61 -5 -38 -23 -56 -19 -72 16 -6 14 -19
25 -28 25 -21 0 -55 36 -70 74 -14 39 9 66 59 66 20 0 47 9 61 20 28 22 108
27 142 9 25 -14 68 3 68 26 0 23 35 18 49 -8z m-2179 -29 c7 -18 15 -36 17
-40 2 -3 -4 -5 -13 -4 -18 3 -32 27 -33 59 -1 27 13 20 29 -15z m484 16 c9
-24 7 -28 -9 -14 -17 14 -20 30 -6 30 5 0 12 -7 15 -16z m1846 1 c0 -9 -6 -12
-15 -9 -8 4 -15 10 -15 15 0 5 7 9 15 9 8 0 15 -7 15 -15z m162 3 c7 -19 -2
-38 -18 -38 -15 0 -17 9 -8 34 7 19 20 21 26 4z m427 -40 c34 -13 62 -38 54
-50 -3 -7 9 -8 33 -4 67 11 119 -36 106 -96 -2 -9 -16 -21 -31 -26 -22 -8 -33
-6 -52 9 -29 22 -45 24 -56 5 -18 -31 -47 -35 -103 -15 -64 22 -152 25 -206 5
-79 -27 -120 19 -89 101 10 26 21 52 26 57 28 31 249 41 318 14z m-4543 -60
c-19 -13 -24 -9 -28 23 l-5 30 22 -23 c15 -15 18 -25 11 -30z m103 -4 c26 -32
12 -57 -28 -52 -29 3 -41 39 -21 64 17 20 26 18 49 -12z m1991 -20 c0 -19 -5
-45 -12 -57 -11 -21 -11 -21 -19 -2 -10 25 -11 80 -2 88 18 18 33 5 33 -29z
m1179 -161 c29 -64 38 -72 73 -62 48 13 55 -3 22 -50 -35 -50 -68 -54 -106
-13 -50 53 -58 87 -32 127 21 32 28 31 43 -2z m-1336 -44 c17 -20 19 -20 44
-4 25 17 26 16 49 -9 40 -42 28 -76 -26 -76 -9 0 -24 9 -31 20 -8 10 -27 22
-43 24 -32 6 -46 21 -46 49 0 24 32 22 53 -4z m-2980 -156 c18 -9 66 -24 107
-35 104 -26 121 -40 144 -126 26 -98 23 -102 -66 -97 -40 2 -78 4 -85 4 -7 1
-28 15 -47 32 -33 29 -39 30 -108 28 -40 -1 -83 1 -96 5 -71 24 -24 170 63
195 44 13 53 13 88 -6z m942 -97 c19 -8 46 -26 59 -39 14 -14 33 -24 42 -23
25 2 52 -68 34 -89 -15 -18 -51 -20 -68 -3 -7 7 -12 8 -12 4 0 -5 -6 -3 -14 3
-10 8 -16 9 -21 1 -3 -6 -11 -8 -16 -5 -5 4 -13 -5 -19 -19 -6 -18 -21 -28
-51 -36 -36 -10 -52 -8 -124 14 -85 27 -95 36 -95 85 0 31 15 46 80 84 35 20
54 25 82 21 21 -4 38 -2 42 5 10 15 40 14 81 -3z m-505 -91 c0 -15 -6 -25 -14
-25 -24 0 -29 20 -10 35 25 19 24 19 24 -10z m-20 -49 c0 -8 -4 -18 -10 -21
-5 -3 -10 3 -10 14 0 12 5 21 10 21 6 0 10 -6 10 -14z m4004 -60 c15 -23 14
-25 -4 -31 -33 -10 -60 4 -60 31 0 33 42 33 64 0z m-4191 -23 c-7 -3 -13 -16
-13 -29 0 -28 -30 -33 -50 -9 -21 25 -5 43 37 43 21 0 32 -3 26 -5z"/>
<path d="M231 4348 c-1 -15 4 -30 9 -33 12 -7 12 12 0 40 -8 18 -9 17 -9 -7z"/>
<path d="M4613 4242 c-30 -5 -65 -50 -61 -79 4 -35 21 -32 30 5 12 44 47 60
94 43 39 -14 52 -10 30 8 -19 16 -66 28 -93 23z"/>
<path d="M4622 4174 c-20 -14 -21 -44 -1 -44 11 0 49 32 49 41 0 15 -29 17
-48 3z"/>
<path d="M2675 4077 c-4 -13 -5 -41 -2 -63 3 -35 4 -33 7 16 l3 55 7 -45 7
-45 1 47 c2 51 -14 74 -23 35z"/>
<path d="M4088 4063 c6 -2 18 -2 25 0 6 3 1 5 -13 5 -14 0 -19 -2 -12 -5z"/>
<path d="M4094 4043 c-12 -2 -30 -14 -40 -25 -19 -21 -19 -21 1 -14 42 17 56
18 70 6 8 -7 12 -17 9 -22 -4 -6 4 -5 16 2 l22 12 -23 24 c-12 13 -25 23 -28
23 -3 -1 -16 -4 -27 -6z"/>
<path d="M2522 4005 c-13 -16 -5 -19 22 -9 9 3 16 10 16 15 0 14 -24 10 -38
-6z"/>
<path d="M3060 4010 c0 -5 11 -10 25 -10 14 0 25 5 25 10 0 6 -11 10 -25 10
-14 0 -25 -4 -25 -10z"/>
<path d="M5240 4010 c0 -5 -10 -10 -22 -10 -12 0 -19 -3 -16 -6 9 -8 78 7 78
17 0 5 -9 9 -20 9 -11 0 -20 -4 -20 -10z"/>
<path d="M3020 3990 c-8 -5 -10 -10 -5 -10 6 0 17 5 25 10 8 5 11 10 5 10 -5
0 -17 -5 -25 -10z"/>
<path d="M2805 3980 c-3 -6 1 -7 9 -4 18 7 21 14 7 14 -6 0 -13 -4 -16 -10z"/>
<path d="M5094 3972 c-9 -13 -9 -22 0 -34 10 -14 12 -11 13 18 1 40 1 40 -13
16z"/>
<path d="M4153 3963 c-10 -10 -23 -27 -28 -38 -8 -19 -9 -19 -13 3 -2 15 -9
22 -18 18 -8 -3 -14 -1 -14 4 0 6 -7 10 -15 10 -9 0 -15 -9 -15 -21 0 -19 -1
-19 -16 -5 -22 22 -48 21 -39 -1 10 -26 10 -25 1 -60 -4 -18 -12 -33 -17 -33
-5 0 -9 -24 -9 -54 0 -64 19 -89 48 -62 10 9 32 16 49 16 58 0 92 54 93 147 0
17 7 39 16 47 14 15 14 16 -3 16 -15 0 -16 2 -3 10 8 5 12 11 9 15 -3 3 -15
-3 -26 -12z"/>
<path d="M4984 3973 c4 -5 13 -8 19 -8 7 -1 11 -7 9 -14 -2 -8 3 -11 12 -8 10
4 14 0 14 -11 -1 -9 2 -35 6 -56 6 -29 10 -36 17 -25 28 44 -13 129 -62 129
-12 0 -19 -3 -15 -7z m74 -84 c-3 -20 -5 -19 -9 9 -3 20 -2 29 4 23 5 -5 7
-19 5 -32z"/>
<path d="M5246 3971 c-4 -5 3 -7 14 -4 23 6 26 13 6 13 -8 0 -17 -4 -20 -9z"/>
<path d="M5298 3973 c7 -3 16 -2 19 1 4 3 -2 6 -13 5 -11 0 -14 -3 -6 -6z"/>
<path d="M5210 3935 c-6 -8 -10 -19 -8 -24 1 -6 8 1 15 14 13 28 11 31 -7 10z"/>
<path d="M5258 3943 c7 -3 16 -2 19 1 4 3 -2 6 -13 5 -11 0 -14 -3 -6 -6z"/>
<path d="M5400 3935 c0 -8 5 -15 10 -15 6 0 10 7 10 15 0 8 -4 15 -10 15 -5 0
-10 -7 -10 -15z"/>
<path d="M5363 3933 c4 -3 1 -13 -6 -22 -11 -14 -10 -14 6 -2 20 15 22 31 5
31 -6 0 -8 -3 -5 -7z"/>
<path d="M931 3904 c-23 -29 -27 -49 -12 -59 10 -6 23 14 41 59 12 34 -3 33
-29 0z"/>
<path d="M5148 3884 c-2 -25 0 -48 4 -50 5 -3 8 18 8 45 0 64 -7 66 -12 5z"/>
<path d="M5225 3919 c-4 -6 -5 -12 -2 -15 2 -3 7 2 10 11 7 17 1 20 -8 4z"/>
<path d="M4978 3913 c7 -3 16 -2 19 1 4 3 -2 6 -13 5 -11 0 -14 -3 -6 -6z"/>
<path d="M5131 3904 c0 -11 3 -14 6 -6 3 7 2 16 -1 19 -3 4 -6 -2 -5 -13z"/>
<path d="M5254 3895 c-13 -21 -14 -30 -5 -48 11 -21 11 -21 6 4 -3 17 2 33 16
47 11 12 15 22 10 22 -6 0 -18 -11 -27 -25z"/>
<path d="M5102 3870 c0 -19 2 -27 5 -17 2 9 2 25 0 35 -3 9 -5 1 -5 -18z"/>
<path d="M5201 3874 c0 -11 3 -14 6 -6 3 7 2 16 -1 19 -3 4 -6 -2 -5 -13z"/>
<path d="M5181 3854 c0 -11 3 -14 6 -6 3 7 2 16 -1 19 -3 4 -6 -2 -5 -13z"/>
<path d="M3921 3824 c0 -11 3 -14 6 -6 3 7 2 16 -1 19 -3 4 -6 -2 -5 -13z"/>
<path d="M3943 3805 c0 -22 2 -30 4 -17 2 12 2 30 0 40 -3 9 -5 -1 -4 -23z"/>
<path d="M5490 3821 l-25 -7 26 -5 c17 -4 26 -1 26 8 0 7 -1 13 -1 12 -1 -1
-12 -4 -26 -8z"/>
<path d="M5512 3770 c0 -14 2 -19 5 -12 2 6 2 18 0 25 -3 6 -5 1 -5 -13z"/>
<path d="M6440 3586 c4 -12 15 -20 24 -20 18 2 23 -41 6 -49 -6 -3 -5 -4 2 -3
33 7 19 82 -16 88 -21 4 -23 2 -16 -16z"/>
<path d="M3970 3475 c0 -15 4 -24 10 -20 6 3 10 12 10 20 0 8 -4 17 -10 20 -6
4 -10 -5 -10 -20z"/>
<path d="M4435 3491 c-6 -11 9 -23 19 -14 9 9 7 23 -3 23 -6 0 -12 -4 -16 -9z"/>
<path d="M4613 3487 c5 -15 -19 -17 -41 -3 -8 5 -12 0 -12 -16 l0 -22 -16 22
c-17 25 -36 21 -28 -6 3 -9 -2 -6 -10 8 -10 16 -15 19 -16 10 0 -13 -1 -13
-10 0 -8 13 -10 13 -10 -2 0 -9 10 -29 23 -44 32 -37 111 -45 146 -15 22 19
23 24 11 46 -14 26 -46 45 -37 22z"/>
<path d="M5500 3396 c0 -10 9 -16 21 -16 24 0 21 23 -4 28 -10 2 -17 -3 -17
-12z"/>
<path d="M5752 3266 c-18 -18 -36 -46 -41 -62 -5 -21 -14 -29 -30 -30 -13 -1
-33 -13 -46 -28 -14 -16 -26 -23 -30 -16 -7 11 -39 -2 -64 -27 -9 -9 -23 -12
-39 -8 -23 6 -24 5 -11 -11 13 -16 12 -17 -8 -12 -13 4 -23 2 -23 -3 0 -5 7
-9 16 -9 21 0 45 -62 38 -99 -5 -24 1 -42 32 -88 45 -69 72 -100 99 -115 16
-9 18 -8 8 3 -16 16 -17 29 -2 29 6 0 17 7 26 16 13 13 14 22 4 54 -6 22 -9
52 -5 67 12 58 48 139 73 168 53 61 60 71 66 103 3 18 11 41 17 52 9 14 9 22
-1 34 -20 24 -42 18 -79 -18z"/>
<path d="M5428 2929 c-10 -5 -18 -7 -18 -4 0 10 -136 -63 -150 -80 -13 -15
-12 -17 5 -13 11 2 28 -4 37 -15 13 -15 21 -16 37 -7 12 6 21 7 21 3 0 -4 7 6
16 24 11 23 25 33 50 37 19 4 34 10 34 14 0 4 3 17 6 30 7 24 -8 29 -38 11z"/>
<path d="M4764 2914 c3 -9 6 -20 6 -25 0 -4 7 -5 17 -2 12 5 14 3 8 -7 -6 -10
-4 -12 9 -7 10 4 20 7 22 7 2 0 4 7 4 15 0 9 -9 15 -25 15 -14 0 -25 5 -25 10
0 6 -5 10 -11 10 -6 0 -8 -7 -5 -16z"/>
<path d="M5480 2893 c-6 -16 -18 -45 -27 -66 -21 -47 -12 -57 17 -18 26 38 42
39 75 4 33 -37 32 -43 -11 -43 -21 0 -33 -4 -29 -10 6 -10 85 -14 85 -4 0 13
-85 164 -93 164 -4 0 -12 -12 -17 -27z"/>
<path d="M4867 2861 c-3 -13 -10 -20 -16 -16 -6 3 -11 1 -11 -4 0 -6 7 -11 15
-11 8 0 15 5 15 11 0 5 4 8 9 4 5 -3 9 -20 9 -38 -1 -17 -3 -26 -5 -19 -9 24
-23 12 -23 -19 0 -24 -4 -30 -15 -25 -9 3 -15 0 -15 -9 0 -8 -7 -15 -15 -15
-8 0 -15 5 -15 11 0 5 -4 8 -9 4 -12 -7 -24 11 -25 39 -1 18 -7 21 -44 21 -27
0 -46 5 -52 15 -5 8 -10 13 -11 10 0 -3 -3 -18 -5 -33 -3 -16 -13 -44 -23 -63
l-18 -34 -24 21 c-21 19 -22 21 -4 15 22 -6 54 9 42 20 -3 4 -13 1 -22 -6 -11
-9 -15 -9 -15 -1 0 9 -5 9 -21 1 -19 -11 -20 -10 -10 9 9 17 9 19 -3 15 -8 -3
-17 -1 -20 4 -4 6 -21 7 -46 1 -35 -8 -44 -6 -62 11 -12 11 -29 20 -37 20 -14
0 -14 1 -1 10 13 8 12 10 -2 10 -10 0 -18 5 -18 10 0 6 -6 10 -14 10 -8 0 -16
5 -18 11 -2 7 -12 7 -31 -2 -21 -9 -33 -10 -52 -1 -40 18 -69 14 -93 -13 -12
-14 -25 -25 -29 -26 -42 -4 -61 -3 -57 3 3 4 -8 8 -25 8 -31 0 -50 -15 -29
-23 10 -3 8 -9 -4 -24 -10 -11 -18 -27 -18 -36 0 -13 -8 -16 -40 -14 -22 1
-45 8 -51 14 -9 9 -17 8 -35 -4 -15 -9 -38 -14 -59 -11 -34 4 -36 2 -47 -34
-6 -21 -17 -43 -25 -49 -7 -6 -13 -17 -13 -24 0 -7 -6 -15 -13 -18 -19 -7 -57
-73 -48 -83 10 -11 31 -130 31 -175 0 -19 7 -43 15 -53 14 -19 15 -17 16 20 2
88 8 114 33 141 14 15 26 33 26 38 0 16 63 75 79 75 8 0 44 15 81 34 36 19
115 53 175 75 95 36 119 41 191 41 46 0 113 -7 151 -16 69 -17 120 -19 154 -9
14 5 19 1 19 -14 0 -12 5 -21 11 -21 6 0 24 -11 39 -24 26 -21 33 -23 77 -14
26 5 92 6 146 3 l98 -7 80 41 c53 27 94 41 122 42 33 1 37 2 17 8 -19 5 -25
14 -28 46 -5 48 -6 50 -23 32 -11 -12 -16 -11 -31 7 -13 16 -17 17 -18 6 0
-13 -1 -13 -10 0 -7 12 -12 11 -28 -8 -20 -23 -74 -28 -65 -6 3 8 -4 11 -21
10 -15 -2 -29 1 -33 7 -4 6 -1 7 8 3 8 -4 3 2 -11 13 -14 12 -37 24 -51 27
-15 3 -31 16 -36 27 -10 21 -10 21 -16 -2z m72 -92 c-19 -11 -24 -3 -8 14 8 9
16 11 18 5 2 -6 -3 -14 -10 -19z"/>
<path d="M4817 2862 c-10 -15 -3 -82 9 -82 19 0 26 30 8 37 -11 4 -14 13 -10
29 6 23 2 32 -7 16z"/>
<path d="M2848 2853 c7 -3 16 -2 19 1 4 3 -2 6 -13 5 -11 0 -14 -3 -6 -6z"/>
<path d="M4009 2839 c-10 -6 -7 -9 14 -9 29 0 35 5 14 13 -8 3 -20 1 -28 -4z"/>
<path d="M4780 2840 c0 -5 5 -10 10 -10 6 0 10 5 10 10 0 6 -4 10 -10 10 -5 0
-10 -4 -10 -10z"/>
<path d="M4716 2821 c-4 -7 -5 -15 -2 -18 9 -9 19 4 14 18 -4 11 -6 11 -12 0z"/>
<path d="M2215 2800 c-3 -5 1 -10 9 -10 9 0 16 5 16 10 0 6 -4 10 -9 10 -6 0
-13 -4 -16 -10z"/>
<path d="M4617 2783 c-4 -3 -7 -11 -7 -17 0 -6 5 -5 12 2 6 6 9 14 7 17 -3 3
-9 2 -12 -2z"/>
<path d="M6113 2777 c-17 -5 -34 -18 -36 -28 -3 -11 -12 -19 -20 -19 -20 0
-35 22 -19 28 7 2 10 8 6 13 -10 16 -24 9 -24 -12 0 -19 -4 -20 -57 -13 -32 4
-72 13 -91 21 -42 18 -53 11 -42 -28 l9 -31 -24 16 c-30 20 -30 16 -5 -63 12
-34 18 -71 15 -82 -4 -13 -2 -19 9 -19 21 0 29 -51 16 -99 -6 -23 -12 -41 -14
-41 -6 0 -76 120 -76 129 0 5 -7 14 -16 22 -8 7 -21 26 -29 43 -12 28 -13 28
-14 8 -1 -34 132 -292 151 -292 4 0 8 10 8 23 0 17 4 13 20 -18 11 -22 33 -49
50 -60 19 -13 34 -34 40 -57 6 -20 16 -43 23 -50 8 -7 16 -22 19 -33 3 -11 9
-28 13 -37 12 -31 -14 -20 -36 15 l-20 32 6 -35 c9 -41 32 -90 44 -90 4 0 14
11 21 25 16 30 6 72 -45 180 -17 39 -43 99 -55 134 -18 47 -25 59 -30 46 -4
-12 -9 -15 -13 -8 -4 6 -3 23 3 38 12 32 -1 98 -35 170 -30 62 -31 75 -6 49
10 -10 17 -22 15 -26 -3 -3 4 -21 15 -40 10 -18 22 -44 26 -58 5 -14 14 -35
22 -47 l15 -22 28 21 c16 11 35 18 42 15 8 -3 21 5 28 16 35 55 51 91 47 108
-3 12 0 19 10 19 10 0 13 6 9 16 -3 9 -6 22 -6 29 0 8 -7 21 -17 30 -31 31 12
40 89 19 15 -4 16 -9 7 -26 -14 -26 -7 -31 30 -23 43 9 45 19 16 64 -21 35
-30 40 -57 39 -18 -1 -47 -6 -65 -11z"/>
<path d="M5296 2748 c-22 -32 -20 -38 14 -38 32 0 33 2 24 38 -8 28 -19 28
-38 0z"/>
<path d="M6115 2730 c-3 -5 1 -10 10 -10 9 0 13 5 10 10 -3 6 -8 10 -10 10 -2
0 -7 -4 -10 -10z"/>
<path d="M5230 2671 c0 -5 14 -14 30 -20 18 -6 28 -6 25 -1 -4 6 -14 10 -23
11 -14 0 -13 2 3 9 18 8 17 9 -7 9 -16 1 -28 -3 -28 -8z"/>
<path d="M5620 2671 c0 -6 4 -12 9 -15 5 -3 11 -16 14 -28 6 -23 6 -23 -9 -3
-9 11 -20 19 -26 17 -6 -2 -8 4 -4 15 10 27 -9 4 -31 -37 -18 -32 -24 -35 -69
-36 -53 -1 -62 7 -63 59 -1 27 -21 40 -21 12 0 -8 -9 -15 -20 -15 -24 0 -25
-23 -9 -114 23 -132 21 -128 64 -151 36 -18 40 -24 40 -58 0 -20 5 -37 10 -37
6 0 37 30 69 65 41 44 67 65 83 65 13 0 23 5 23 10 0 7 8 7 22 -1 16 -9 23 -9
26 0 2 6 8 11 14 11 6 0 7 -8 4 -17 -4 -10 -4 -14 0 -11 7 8 34 -16 34 -30 0
-5 8 -16 17 -23 15 -12 -58 133 -139 279 -29 51 -38 61 -38 43z"/>
<path d="M4480 2660 c-12 -8 -9 -10 13 -10 15 0 27 5 27 10 0 13 -20 13 -40 0z"/>
<path d="M4470 2633 c-8 -3 -19 -12 -23 -19 -4 -8 -20 -14 -35 -14 -21 0 -24
-2 -12 -10 23 -15 1 -12 -70 10 -89 27 -94 25 -27 -14 70 -40 88 -56 64 -56
-15 0 -15 -3 -5 -20 8 -12 24 -20 39 -20 35 0 74 -32 66 -53 -4 -10 -15 -17
-25 -17 -19 0 -42 -37 -42 -68 0 -10 -5 -23 -11 -29 -7 -7 -2 -17 17 -32 l28
-22 26 30 c22 26 65 51 89 51 5 0 13 -17 19 -37 11 -40 42 -126 46 -131 2 -1
11 0 20 4 11 4 13 10 7 18 -4 6 -12 22 -16 36 -4 14 -19 42 -32 62 -18 29 -22
47 -18 78 4 35 2 40 -13 38 -13 -2 -18 5 -20 28 -3 28 0 32 29 38 34 7 55 -4
64 -35 4 -10 14 -19 24 -19 28 0 41 -23 38 -65 -1 -21 3 -40 9 -42 7 -2 10 6
6 23 -4 25 -3 25 18 14 18 -10 24 -9 31 1 6 10 10 10 23 0 9 -8 16 -9 16 -3 0
10 19 8 78 -10 27 -8 31 -12 21 -24 -9 -11 -8 -14 5 -14 9 0 16 4 16 9 0 10
87 -16 94 -28 3 -3 -9 -46 -25 -95 -16 -49 -29 -97 -29 -107 0 -36 17 -19 30
29 7 26 19 70 28 97 9 28 15 53 14 58 -3 9 -1 9 37 -4 17 -6 31 -14 31 -18 0
-4 7 -16 15 -27 14 -18 15 -16 10 21 -12 78 -17 95 -25 90 -5 -3 -5 -16 0 -30
7 -19 6 -25 -4 -25 -23 0 -124 48 -133 63 -4 8 -39 29 -76 46 -44 21 -67 37
-63 46 7 18 -49 69 -68 62 -9 -4 -15 -12 -14 -18 2 -6 -3 -14 -9 -16 -7 -3
-13 2 -13 11 0 9 -5 16 -11 16 -5 0 -7 -5 -3 -11 8 -13 -16 -7 -96 26 -30 12
-68 25 -84 29 -18 4 -25 10 -19 14 15 9 5 92 -11 91 -6 0 -18 -3 -26 -6z m55
-151 c-3 -3 -11 0 -18 7 -9 10 -8 11 6 5 10 -3 15 -9 12 -12z"/>
<path d="M4129 2573 c-9 -10 -8 -13 0 -13 8 0 10 -8 6 -20 -5 -17 -1 -21 26
-27 31 -6 31 -6 26 -56 -7 -51 -16 -72 -24 -49 -3 6 -9 9 -15 6 -5 -3 0 -13
12 -21 14 -10 25 -11 33 -5 37 29 74 16 91 -32 11 -32 25 -5 32 63 l7 63 -44
-4 -44 -3 -9 43 c-6 23 -13 42 -18 42 -4 0 -8 6 -8 14 0 19 -56 18 -71 -1z"/>
<path d="M4692 2578 c-8 -8 -7 -14 3 -24 17 -18 35 -18 35 0 0 22 -24 38 -38
24z"/>
<path d="M6291 2570 c0 -8 4 -24 9 -35 5 -13 9 -14 9 -5 0 8 -4 24 -9 35 -5
13 -9 14 -9 5z"/>
<path d="M5011 2516 c-10 -12 -9 -17 8 -25 25 -14 53 -4 49 18 -4 21 -41 26
-57 7z"/>
<path d="M4320 2499 c0 -5 5 -7 10 -4 6 3 10 8 10 11 0 2 -4 4 -10 4 -5 0 -10
-5 -10 -11z"/>
<path d="M3934 2487 c-8 -10 -5 -16 12 -24 26 -12 34 -8 34 19 0 21 -29 24
-46 5z"/>
<path d="M4921 2468 c1 -35 33 -83 57 -86 30 -5 44 47 17 62 -10 6 -27 19 -37
29 -25 23 -38 21 -37 -5z"/>
<path d="M4000 2403 c0 -33 19 -133 25 -133 10 0 55 24 55 29 0 3 14 21 30 40
36 40 34 56 -6 57 -17 0 -35 4 -42 8 -7 4 -17 4 -23 1 -6 -4 -17 1 -24 11 -13
18 -14 17 -15 -13z"/>
<path d="M3910 2345 c-7 -9 -8 -15 -2 -15 5 0 12 7 16 15 3 8 4 15 2 15 -2 0
-9 -7 -16 -15z"/>
<path d="M5857 2300 c3 -11 7 -20 9 -20 2 0 4 9 4 20 0 11 -4 20 -9 20 -5 0
-7 -9 -4 -20z"/>
<path d="M522 2274 c-17 -32 -22 -78 -12 -94 18 -26 51 23 43 63 -8 42 -19 53
-31 31z"/>
<path d="M2290 2267 c0 -24 -3 -27 -21 -22 -18 6 -19 5 -10 -13 15 -28 5 -49
-30 -61 -36 -12 -36 -17 1 -36 l29 -15 10 37 c6 21 11 44 11 51 0 6 5 12 10
12 6 0 8 -10 5 -23 -6 -22 -3 -24 35 -25 29 -1 42 3 47 14 3 8 12 13 19 10 19
-7 18 0 -8 34 -15 21 -30 30 -49 30 -16 0 -32 8 -38 18 -9 14 -10 13 -11 -11z"/>
<path d="M2948 2278 c-2 -7 -1 -29 3 -48 5 -27 7 -29 8 -10 1 14 4 35 7 48 7
23 -11 32 -18 10z"/>
<path d="M3268 2220 c-2 -25 -1 -52 3 -60 4 -8 12 -27 18 -42 7 -18 18 -28 31
-28 11 0 19 -3 19 -7 -3 -19 2 -33 11 -33 12 0 13 35 1 58 -5 9 -17 38 -26 64
-9 26 -25 58 -35 70 l-18 22 -4 -44z"/>
<path d="M3907 2235 c-4 -8 -2 -17 3 -20 6 -4 10 3 10 14 0 25 -6 27 -13 6z"/>
<path d="M4311 2234 c0 -11 3 -14 6 -6 3 7 2 16 -1 19 -3 4 -6 -2 -5 -13z"/>
<path d="M4396 2230 c4 -14 8 -42 9 -63 3 -48 12 -57 25 -23 14 38 13 47 -16
81 -25 29 -25 29 -18 5z"/>
<path d="M1918 2209 c-22 -12 -24 -57 -3 -65 8 -4 15 -15 15 -25 0 -12 8 -20
20 -20 11 -1 26 -2 33 -3 6 -1 21 -9 32 -19 18 -16 19 -16 29 0 5 10 10 20 12
22 7 8 53 -55 54 -73 0 -34 14 -7 27 52 15 74 15 82 0 82 -7 0 -18 9 -25 21
-10 16 -20 20 -41 16 -15 -3 -40 1 -55 9 -33 16 -73 18 -98 3z"/>
<path d="M3023 2173 c8 -48 22 -61 37 -34 15 28 5 57 -22 64 -19 5 -20 3 -15
-30z"/>
<path d="M3120 2195 c0 -8 -4 -15 -10 -15 -18 0 -11 -19 21 -54 17 -20 28 -40
24 -46 -3 -5 0 -8 7 -5 17 7 41 61 33 75 -3 5 -13 10 -21 10 -8 0 -14 10 -14
25 0 18 -5 25 -20 25 -11 0 -20 -7 -20 -15z"/>
<path d="M4530 2186 c0 -17 25 -38 34 -29 4 4 10 2 14 -4 5 -7 11 -7 20 3 7 8
8 14 2 14 -5 0 -10 7 -10 15 0 10 -10 15 -30 15 -19 0 -30 -5 -30 -14z"/>
<path d="M5122 2180 c0 -14 2 -19 5 -12 2 6 2 18 0 25 -3 6 -5 1 -5 -13z"/>
<path d="M6071 2174 c0 -11 3 -14 6 -6 3 7 2 16 -1 19 -3 4 -6 -2 -5 -13z"/>
<path d="M3970 2130 c-11 -20 -6 -40 9 -40 12 0 20 49 10 56 -4 2 -13 -5 -19
-16z"/>
<path d="M4137 2123 c-12 -11 -8 -23 8 -23 8 0 15 7 15 15 0 16 -12 20 -23 8z"/>
<path d="M2660 2110 c0 -5 4 -10 9 -10 6 0 13 5 16 10 3 6 -1 10 -9 10 -9 0
-16 -4 -16 -10z"/>
<path d="M596 2091 c-6 -9 35 -24 43 -15 6 5 -18 24 -31 24 -4 0 -9 -4 -12 -9z"/>
<path d="M3078 2059 c-20 -21 -25 -40 -6 -21 7 7 22 12 34 12 13 0 26 5 30 12
5 7 2 9 -8 5 -9 -3 -19 -2 -24 2 -5 5 -17 0 -26 -10z"/>
<path d="M590 2050 c0 -5 5 -10 10 -10 6 0 10 5 10 10 0 6 -4 10 -10 10 -5 0
-10 -4 -10 -10z"/>
<path d="M1930 2050 c-9 -6 -10 -10 -3 -10 6 0 15 5 18 10 8 12 4 12 -15 0z"/>
<path d="M3826 2034 c-8 -22 -8 -26 4 -19 7 4 9 -2 4 -19 -8 -35 2 -49 26 -33
11 6 20 17 20 24 0 7 5 13 10 13 6 0 3 11 -6 25 -18 28 -49 33 -58 9z"/>
<path d="M5094 2036 c-8 -22 3 -33 18 -18 9 9 9 15 0 24 -9 9 -13 7 -18 -6z"/>
<path d="M2655 2030 c-3 -5 -1 -10 4 -10 6 0 11 5 11 10 0 6 -2 10 -4 10 -3 0
-8 -4 -11 -10z"/>
<path d="M4842 1996 c-15 -33 -16 -82 -1 -92 22 -13 31 13 22 67 -8 52 -8 53
-21 25z"/>
<path d="M3506 1997 c3 -10 9 -15 12 -12 3 3 0 11 -7 18 -10 9 -11 8 -5 -6z"/>
<path d="M3910 1981 c0 -30 16 -33 28 -6 10 22 9 25 -8 25 -13 0 -20 -7 -20
-19z"/>
<path d="M4910 1960 c0 -11 5 -20 10 -20 6 0 10 9 10 20 0 11 -4 20 -10 20 -5
0 -10 -9 -10 -20z"/>
<path d="M3025 1820 c3 -5 8 -10 11 -10 2 0 4 5 4 10 0 6 -5 10 -11 10 -5 0
-7 -4 -4 -10z"/>
<path d="M6785 3690 c-3 -5 -1 -10 4 -10 6 0 11 5 11 10 0 6 -2 10 -4 10 -3 0
-8 -4 -11 -10z"/>
<path d="M7680 2975 c0 -10 10 -15 28 -15 26 1 26 1 8 15 -25 19 -36 19 -36 0z"/>
<path d="M6933 2848 c-23 -30 -22 -47 4 -68 l26 -21 39 42 c30 32 36 44 26 50
-20 13 -84 11 -95 -3z"/>
<path d="M6790 2221 c0 -5 5 -23 12 -41 10 -30 12 -32 19 -14 13 33 10 51 -11
57 -11 3 -20 2 -20 -2z"/>
<path d="M7450 1980 c0 -5 5 -10 10 -10 6 0 10 5 10 10 0 6 -4 10 -10 10 -5 0
-10 -4 -10 -10z"/>
<path d="M7390 6290 c0 -16 -4 -30 -10 -30 -5 0 -10 -4 -10 -10 0 -5 9 -10 19
-10 11 0 23 -4 26 -10 8 -13 25 -13 25 -1 0 5 -7 16 -15 25 -8 8 -15 26 -15
40 0 14 -4 26 -10 26 -5 0 -10 -13 -10 -30z"/>
<path d="M4539 6103 c-13 -16 -12 -17 4 -4 9 7 17 15 17 17 0 8 -8 3 -21 -13z"/>
<path d="M1986 4815 c-3 -8 -1 -15 4 -15 6 0 10 7 10 15 0 8 -2 15 -4 15 -2 0
-6 -7 -10 -15z"/>
<path d="M2020 4810 c-12 -8 -10 -10 8 -10 13 0 20 4 17 10 -7 12 -6 12 -25 0z"/>
</g>
</svg>
